{
  "asset": {
    "generator": "glTF-Transform v4.1.2",
    "version": "2.0"
  },
  "accessors": [
    {
      "type": "SCALAR",
      "componentType": 5123,
      "count": 36,
      "bufferView": 0,
      "byteOffset": 0
    },
    {
      "type": "SCALAR",
      "componentType": 5123,
      "count": 12,
      "bufferView": 0,
      "byteOffset": 72
    },
    {
      "type": "SCALAR",
      "componentType": 5123,
      "count": 24,
      "bufferView": 0,
      "byteOffset": 96
    },
    {
      "type": "SCALAR",
      "componentType": 5123,
      "count": 18,
      "bufferView": 0,
      "byteOffset": 144
    },
    {
      "type": "VEC3",
      "componentType": 5126,
      "count": 24,
      "max": [
        0.0625,
        0.171875,
        0.125
      ],
      "min": [
        -0.0625,
        0,
        -0.0625
      ],
      "bufferView": 1,
      "byteOffset": 0
    },
    {
      "type": "VEC3",
      "componentType": 5126,
      "count": 24,
      "bufferView": 1,
      "byteOffset": 12
    },
    {
      "type": "VEC2",
      "componentType": 5126,
      "count": 24,
      "bufferView": 1,
      "byteOffset": 24
    },
    {
      "type": "VEC3",
      "componentType": 5126,
      "count": 24,
      "max": [
        0.0625,
        0.1875,
        0.5625
      ],
      "min": [
        -0.0625,
        0.03125,
        -0.0625
      ],
      "bufferView": 2,
      "byteOffset": 0
    },
    {
      "type": "VEC2",
      "componentType": 5126,
      "count": 24,
      "bufferView": 2,
      "byteOffset": 12
    },
    {
      "type": "VEC3",
      "componentType": 5126,
      "count": 8,
      "max": [
        -0.062437500804662704,
        0.0625,
        0.0625
      ],
      "min": [
        -0.0625,
        0,
        -0.0625
      ],
      "bufferView": 3,
      "byteOffset": 0
    },
    {
      "type": "VEC2",
      "componentType": 5126,
      "count": 8,
      "bufferView": 3,
      "byteOffset": 12
    },
    {
      "type": "VEC3",
      "componentType": 5126,
      "count": 8,
      "bufferView": 3,
      "byteOffset": 20
    },
    {
      "type": "VEC3",
      "componentType": 5126,
      "count": 16,
      "max": [
        -0.062437500804662704,
        0.0625,
        0.0625
      ],
      "min": [
        -0.0625,
        0,
        -0.0625
      ],
      "bufferView": 4,
      "byteOffset": 0
    },
    {
      "type": "VEC3",
      "componentType": 5126,
      "count": 16,
      "bufferView": 4,
      "byteOffset": 12
    },
    {
      "type": "VEC3",
      "componentType": 5126,
      "count": 24,
      "max": [
        0.0625,
        0.09375,
        0.5625
      ],
      "min": [
        -0.0625,
        0.0625,
        -0.0625
      ],
      "bufferView": 5,
      "byteOffset": 0
    },
    {
      "type": "VEC2",
      "componentType": 5126,
      "count": 24,
      "bufferView": 5,
      "byteOffset": 12
    },
    {
      "type": "VEC3",
      "componentType": 5126,
      "count": 12,
      "max": [
        -0.09993749856948853,
        0.0625,
        0.0625
      ],
      "min": [
        -0.10000000149011612,
        0,
        -0.0625
      ],
      "bufferView": 6,
      "byteOffset": 0
    },
    {
      "type": "VEC2",
      "componentType": 5126,
      "count": 12,
      "bufferView": 6,
      "byteOffset": 12
    },
    {
      "type": "VEC3",
      "componentType": 5126,
      "count": 12,
      "bufferView": 6,
      "byteOffset": 20
    },
    {
      "type": "VEC3",
      "componentType": 5126,
      "count": 12,
      "max": [
        -0.09993749856948853,
        0.0625,
        0.0625
      ],
      "min": [
        -0.10000000149011612,
        0,
        -0.0625
      ],
      "bufferView": 7,
      "byteOffset": 0
    },
    {
      "type": "VEC3",
      "componentType": 5126,
      "count": 12,
      "bufferView": 7,
      "byteOffset": 12
    },
    {
      "type": "VEC3",
      "componentType": 5126,
      "count": 8,
      "max": [
        -0.09993749856948853,
        0.0625,
        0
      ],
      "min": [
        -0.10000000149011612,
        0,
        -0.0625
      ],
      "bufferView": 8,
      "byteOffset": 0
    },
    {
      "type": "VEC2",
      "componentType": 5126,
      "count": 8,
      "bufferView": 8,
      "byteOffset": 12
    },
    {
      "type": "VEC3",
      "componentType": 5126,
      "count": 16,
      "max": [
        -0.09993749856948853,
        0.0625,
        0
      ],
      "min": [
        -0.10000000149011612,
        0,
        -0.0625
      ],
      "bufferView": 9,
      "byteOffset": 0
    },
    {
      "type": "VEC3",
      "componentType": 5126,
      "count": 8,
      "max": [
        -0.1249374970793724,
        0.125,
        0.0625
      ],
      "min": [
        -0.125,
        0.0625,
        -0.0625
      ],
      "bufferView": 10,
      "byteOffset": 0
    },
    {
      "type": "VEC2",
      "componentType": 5126,
      "count": 8,
      "bufferView": 10,
      "byteOffset": 12
    },
    {
      "type": "VEC3",
      "componentType": 5126,
      "count": 16,
      "max": [
        -0.1249374970793724,
        0.125,
        0.0625
      ],
      "min": [
        -0.125,
        0.0625,
        -0.0625
      ],
      "bufferView": 11,
      "byteOffset": 0
    },
    {
      "type": "VEC3",
      "componentType": 5126,
      "count": 8,
      "max": [
        -0.1249374970793724,
        0.125,
        0
      ],
      "min": [
        -0.125,
        0.0625,
        -0.0625
      ],
      "bufferView": 12,
      "byteOffset": 0
    },
    {
      "type": "VEC2",
      "componentType": 5126,
      "count": 8,
      "bufferView": 12,
      "byteOffset": 12
    },
    {
      "type": "VEC3",
      "componentType": 5126,
      "count": 16,
      "max": [
        -0.1249374970793724,
        0.125,
        0
      ],
      "min": [
        -0.125,
        0.0625,
        -0.0625
      ],
      "bufferView": 13,
      "byteOffset": 0
    },
    {
      "type": "VEC3",
      "componentType": 5126,
      "count": 8,
      "max": [
        -0.062437500804662704,
        0.14374999701976776,
        0.0625
      ],
      "min": [
        -0.0625,
        0.01875000074505806,
        -0.0625
      ],
      "bufferView": 14,
      "byteOffset": 0
    },
    {
      "type": "VEC2",
      "componentType": 5126,
      "count": 8,
      "bufferView": 14,
      "byteOffset": 12
    },
    {
      "type": "VEC3",
      "componentType": 5126,
      "count": 16,
      "max": [
        -0.062437500804662704,
        0.14374999701976776,
        0.0625
      ],
      "min": [
        -0.0625,
        0.01875000074505806,
        -0.0625
      ],
      "bufferView": 15,
      "byteOffset": 0
    },
    {
      "type": "VEC3",
      "componentType": 5126,
      "count": 8,
      "max": [
        -0.062437500804662704,
        0.26875001192092896,
        0
      ],
      "min": [
        -0.0625,
        0.01875000074505806,
        -0.0625
      ],
      "bufferView": 16,
      "byteOffset": 0
    },
    {
      "type": "VEC2",
      "componentType": 5126,
      "count": 8,
      "bufferView": 16,
      "byteOffset": 12
    },
    {
      "type": "VEC3",
      "componentType": 5126,
      "count": 16,
      "max": [
        -0.062437500804662704,
        0.26875001192092896,
        0
      ],
      "min": [
        -0.0625,
        0.01875000074505806,
        -0.0625
      ],
      "bufferView": 17,
      "byteOffset": 0
    },
    {
      "type": "VEC3",
      "componentType": 5126,
      "count": 8,
      "max": [
        -0.062437500804662704,
        0.08124999701976776,
        0
      ],
      "min": [
        -0.0625,
        0.01875000074505806,
        -0.0625
      ],
      "bufferView": 18,
      "byteOffset": 0
    },
    {
      "type": "VEC2",
      "componentType": 5126,
      "count": 8,
      "bufferView": 18,
      "byteOffset": 12
    },
    {
      "type": "VEC3",
      "componentType": 5126,
      "count": 16,
      "max": [
        -0.062437500804662704,
        0.08124999701976776,
        0
      ],
      "min": [
        -0.0625,
        0.01875000074505806,
        -0.0625
      ],
      "bufferView": 19,
      "byteOffset": 0
    },
    {
      "type": "VEC2",
      "componentType": 5126,
      "count": 8,
      "bufferView": 20,
      "byteOffset": 0
    },
    {
      "type": "SCALAR",
      "componentType": 5126,
      "count": 4,
      "max": [
        2
      ],
      "min": [
        0
      ],
      "bufferView": 21,
      "byteOffset": 0
    },
    {
      "type": "VEC4",
      "componentType": 5126,
      "count": 4,
      "bufferView": 21,
      "byteOffset": 16
    },
    {
      "type": "VEC4",
      "componentType": 5126,
      "count": 4,
      "bufferView": 21,
      "byteOffset": 80
    }
  ],
  "bufferViews": [
    {
      "buffer": 0,
      "byteOffset": 0,
      "byteLength": 180,
      "target": 34963
    },
    {
      "buffer": 0,
      "byteOffset": 180,
      "byteLength": 768,
      "byteStride": 32,
      "target": 34962
    },
    {
      "buffer": 0,
      "byteOffset": 948,
      "byteLength": 480,
      "byteStride": 20,
      "target": 34962
    },
    {
      "buffer": 0,
      "byteOffset": 1428,
      "byteLength": 256,
      "byteStride": 32,
      "target": 34962
    },
    {
      "buffer": 0,
      "byteOffset": 1684,
      "byteLength": 384,
      "byteStride": 24,
      "target": 34962
    },
    {
      "buffer": 0,
      "byteOffset": 2068,
      "byteLength": 480,
      "byteStride": 20,
      "target": 34962
    },
    {
      "buffer": 0,
      "byteOffset": 2548,
      "byteLength": 384,
      "byteStride": 32,
      "target": 34962
    },
    {
      "buffer": 0,
      "byteOffset": 2932,
      "byteLength": 288,
      "byteStride": 24,
      "target": 34962
    },
    {
      "buffer": 0,
      "byteOffset": 3220,
      "byteLength": 160,
      "byteStride": 20,
      "target": 34962
    },
    {
      "buffer": 0,
      "byteOffset": 3380,
      "byteLength": 192,
      "byteStride": 12,
      "target": 34962
    },
    {
      "buffer": 0,
      "byteOffset": 3572,
      "byteLength": 160,
      "byteStride": 20,
      "target": 34962
    },
    {
      "buffer": 0,
      "byteOffset": 3732,
      "byteLength": 192,
      "byteStride": 12,
      "target": 34962
    },
    {
      "buffer": 0,
      "byteOffset": 3924,
      "byteLength": 160,
      "byteStride": 20,
      "target": 34962
    },
    {
      "buffer": 0,
      "byteOffset": 4084,
      "byteLength": 192,
      "byteStride": 12,
      "target": 34962
    },
    {
      "buffer": 0,
      "byteOffset": 4276,
      "byteLength": 160,
      "byteStride": 20,
      "target": 34962
    },
    {
      "buffer": 0,
      "byteOffset": 4436,
      "byteLength": 192,
      "byteStride": 12,
      "target": 34962
    },
    {
      "buffer": 0,
      "byteOffset": 4628,
      "byteLength": 160,
      "byteStride": 20,
      "target": 34962
    },
    {
      "buffer": 0,
      "byteOffset": 4788,
      "byteLength": 192,
      "byteStride": 12,
      "target": 34962
    },
    {
      "buffer": 0,
      "byteOffset": 4980,
      "byteLength": 160,
      "byteStride": 20,
      "target": 34962
    },
    {
      "buffer": 0,
      "byteOffset": 5140,
      "byteLength": 192,
      "byteStride": 12,
      "target": 34962
    },
    {
      "buffer": 0,
      "byteOffset": 5332,
      "byteLength": 64,
      "byteStride": 8,
      "target": 34962
    },
    {
      "buffer": 0,
      "byteOffset": 5396,
      "byteLength": 144
    }
  ],
  "samplers": [
    {
      "magFilter": 9728,
      "minFilter": 9728,
      "wrapS": 33071,
      "wrapT": 33071
    }
  ],
  "textures": [
    {
      "source": 0,
      "sampler": 0
    }
  ],
  "images": [
    {
      "mimeType": "image/png",
      "uri": "baseColor.png"
    }
  ],
  "buffers": [
    {
      "uri": "cod-named-nodes.bin",
      "byteLength": 5540
    }
  ],
  "materials": [
    {
      "alphaMode": "MASK",
      "alphaCutoff": 0.05,
      "doubleSided": true,
      "pbrMetallicRoughness": {
        "metallicFactor": 0,
        "baseColorTexture": {
          "index": 0
        }
      }
    },
    {
      "alphaMode": "MASK",
      "alphaCutoff": 0.05,
      "doubleSided": true,
      "pbrMetallicRoughness": {
        "metallicFactor": 0
      }
    }
  ],
  "meshes": [
    {
      "primitives": [
        {
          "attributes": {
            "POSITION": 4,
            "NORMAL": 5,
            "TEXCOORD_0": 6
          },
          "mode": 4,
          "material": 0,
          "indices": 0
        }
      ]
    },
    {
      "primitives": [
        {
          "attributes": {
            "POSITION": 7,
            "TEXCOORD_0": 8,
            "NORMAL": 5
          },
          "mode": 4,
          "material": 0,
          "indices": 0
        }
      ]
    },
    {
      "primitives": [
        {
          "attributes": {
            "POSITION": 9,
            "TEXCOORD_0": 10,
            "NORMAL": 11
          },
          "mode": 4,
          "material": 0,
          "indices": 1
        },
        {
          "attributes": {
            "POSITION": 12,
            "NORMAL": 13
          },
          "mode": 4,
          "material": 1,
          "indices": 2
        }
      ]
    },
    {
      "primitives": [
        {
          "attributes": {
            "POSITION": 14,
            "TEXCOORD_0": 15,
            "NORMAL": 5
          },
          "mode": 4,
          "material": 0,
          "indices": 0
        }
      ]
    },
    {
      "primitives": [
        {
          "attributes": {
            "POSITION": 9,
            "NORMAL": 11,
            "TEXCOORD_0": 10
          },
          "mode": 4,
          "material": 0,
          "indices": 1
        },
        {
          "attributes": {
            "POSITION": 12,
            "NORMAL": 13
          },
          "mode": 4,
          "material": 1,
          "indices": 2
        }
      ]
    },
    {
      "primitives": [
        {
          "attributes": {
            "POSITION": 16,
            "TEXCOORD_0": 17,
            "NORMAL": 18
          },
          "mode": 4,
          "material": 0,
          "indices": 3
        },
        {
          "attributes": {
            "POSITION": 19,
            "NORMAL": 20
          },
          "mode": 4,
          "material": 1,
          "indices": 3
        }
      ]
    },
    {
      "primitives": [
        {
          "attributes": {
            "POSITION": 21,
            "TEXCOORD_0": 22,
            "NORMAL": 11
          },
          "mode": 4,
          "material": 0,
          "indices": 1
        },
        {
          "attributes": {
            "POSITION": 23,
            "NORMAL": 13
          },
          "mode": 4,
          "material": 1,
          "indices": 2
        }
      ]
    },
    {
      "primitives": [
        {
          "attributes": {
            "POSITION": 24,
            "TEXCOORD_0": 25,
            "NORMAL": 11
          },
          "mode": 4,
          "material": 0,
          "indices": 1
        },
        {
          "attributes": {
            "POSITION": 26,
            "NORMAL": 13
          },
          "mode": 4,
          "material": 1,
          "indices": 2
        }
      ]
    },
    {
      "primitives": [
        {
          "attributes": {
            "POSITION": 27,
            "TEXCOORD_0": 28,
            "NORMAL": 11
          },
          "mode": 4,
          "material": 0,
          "indices": 1
        },
        {
          "attributes": {
            "POSITION": 29,
            "NORMAL": 13
          },
          "mode": 4,
          "material": 1,
          "indices": 2
        }
      ]
    },
    {
      "primitives": [
        {
          "attributes": {
            "POSITION": 30,
            "TEXCOORD_0": 31,
            "NORMAL": 11
          },
          "mode": 4,
          "material": 0,
          "indices": 1
        },
        {
          "attributes": {
            "POSITION": 32,
            "NORMAL": 13
          },
          "mode": 4,
          "material": 1,
          "indices": 2
        }
      ]
    },
    {
      "primitives": [
        {
          "attributes": {
            "POSITION": 33,
            "TEXCOORD_0": 34,
            "NORMAL": 11
          },
          "mode": 4,
          "material": 0,
          "indices": 1
        },
        {
          "attributes": {
            "POSITION": 35,
            "NORMAL": 13
          },
          "mode": 4,
          "material": 1,
          "indices": 2
        }
      ]
    },
    {
      "primitives": [
        {
          "attributes": {
            "POSITION": 36,
            "TEXCOORD_0": 37,
            "NORMAL": 11
          },
          "mode": 4,
          "material": 0,
          "indices": 1
        },
        {
          "attributes": {
            "POSITION": 38,
            "NORMAL": 13
          },
          "mode": 4,
          "material": 1,
          "indices": 2
        }
      ]
    },
    {
      "primitives": [
        {
          "attributes": {
            "TEXCOORD_0": 39,
            "POSITION": 36,
            "NORMAL": 11
          },
          "mode": 4,
          "material": 0,
          "indices": 1
        },
        {
          "attributes": {
            "POSITION": 38,
            "NORMAL": 13
          },
          "mode": 4,
          "material": 1,
          "indices": 2
        }
      ]
    }
  ],
  "nodes": [
    {
      "name": "cube",
      "translation": [
        0,
        0.25,
        -0.375
      ],
      "mesh": 0
    },
    {
      "name": "cube",
      "translation": [
        0,
        -0.1875,
        0.125
      ],
      "mesh": 1
    },
    {
      "name": "cube",
      "translation": [
        0.0625,
        0,
        0.25
      ],
      "mesh": 2
    },
    {
      "name": "cube",
      "translation": [
        0,
        -0.25,
        0.125
      ],
      "mesh": 3
    },
    {
      "name": "cube",
      "translation": [
        0.0625,
        0,
        0.5
      ],
      "mesh": 4
    },
    {
      "name": "Body",
      "translation": [
        0,
        0.4375,
        -0.3125
      ],
      "children": [
        1,
        2,
        3,
        4
      ]
    },
    {
      "name": "cube",
      "translation": [
        0,
        0.1875,
        -0.125
      ],
      "rotation": [
        0,
        0,
        -0.1305261922200516,
        0.9914448613738105
      ],
      "mesh": 5
    },
    {
      "name": "cube",
      "translation": [
        -0.016176190318907546,
        0.12712963585693324,
        -0.125
      ],
      "rotation": [
        0,
        0,
        -0.1305261922200516,
        0.9914448613738105
      ],
      "mesh": 6
    },
    {
      "name": "cube",
      "translation": [
        0.23647252412886857,
        0.18601850044499582,
        -0.1875
      ],
      "rotation": [
        0,
        0,
        0.10886687485196461,
        0.9940563382223196
      ],
      "mesh": 7
    },
    {
      "name": "cube",
      "translation": [
        0.25,
        0.125,
        -0.1875
      ],
      "rotation": [
        0,
        0,
        0.10886687485196461,
        0.9940563382223196
      ],
      "mesh": 8
    },
    {
      "name": "cube",
      "translation": [
        0.0625,
        -0.0625,
        0.3125
      ],
      "mesh": 9
    },
    {
      "name": "cube",
      "translation": [
        0.0625,
        -0.125,
        0.4375
      ],
      "mesh": 10
    },
    {
      "name": "cube",
      "translation": [
        0.0625,
        0.0625,
        0.5
      ],
      "mesh": 11
    },
    {
      "name": "cube",
      "translation": [
        0.0625,
        -0.125,
        0.5
      ],
      "mesh": 12
    },
    {
      "name": "Tail",
      "translation": [
        0,
        0.3125,
        0
      ],
      "children": [
        10,
        11,
        12,
        13
      ]
    },
    {
      "children": [
        5,
        14
      ]
    }
  ],
  "animations": [
    {
      "name": "swim",
      "samplers": [
        {
          "input": 40,
          "output": 41,
          "interpolation": "LINEAR"
        },
        {
          "input": 40,
          "output": 42,
          "interpolation": "LINEAR"
        }
      ],
      "channels": [
        {
          "sampler": 0,
          "target": {
            "node": 14,
            "path": "rotation"
          }
        },
        {
          "sampler": 1,
          "target": {
            "node": 5,
            "path": "rotation"
          }
        }
      ]
    }
  ],
  "scenes": [
    {
      "name": "blockbench_export",
      "nodes": [
        15,
        0,
        6,
        7,
        8,
        9
      ]
    }
  ],
  "scene": 0
}