{
  "asset": {
    "generator": "glTF-Transform v4.1.2",
    "version": "2.0"
  },
  "accessors": [
    {
      "type": "SCALAR",
      "componentType": 5126,
      "count": 4,
      "max": [
        2
      ],
      "min": [
        0
      ],
      "bufferView": 0,
      "byteOffset": 0
    },
    {
      "type": "VEC4",
      "componentType": 5126,
      "count": 4,
      "bufferView": 0,
      "byteOffset": 16
    },
    {
      "type": "SCALAR",
      "componentType": 5126,
      "count": 5,
      "max": [
        2
      ],
      "min": [
        0
      ],
      "bufferView": 0,
      "byteOffset": 80
    },
    {
      "type": "VEC4",
      "componentType": 5126,
      "count": 5,
      "bufferView": 0,
      "byteOffset": 100
    },
    {
      "type": "SCALAR",
      "componentType": 5126,
      "count": 4,
      "max": [
        2
      ],
      "min": [
        0
      ],
      "bufferView": 0,
      "byteOffset": 180
    },
    {
      "type": "VEC4",
      "componentType": 5126,
      "count": 4,
      "bufferView": 0,
      "byteOffset": 196
    },
    {
      "type": "SCALAR",
      "componentType": 5123,
      "count": 1176,
      "bufferView": 1,
      "byteOffset": 0
    },
    {
      "type": "SCALAR",
      "componentType": 5123,
      "count": 72,
      "bufferView": 1,
      "byteOffset": 2352
    },
    {
      "type": "SCALAR",
      "componentType": 5123,
      "count": 1992,
      "bufferView": 1,
      "byteOffset": 2496
    },
    {
      "type": "SCALAR",
      "componentType": 5123,
      "count": 372,
      "bufferView": 1,
      "byteOffset": 6480
    },
    {
      "type": "SCALAR",
      "componentType": 5123,
      "count": 168,
      "bufferView": 1,
      "byteOffset": 7224
    },
    {
      "type": "SCALAR",
      "componentType": 5123,
      "count": 336,
      "bufferView": 1,
      "byteOffset": 7560
    },
    {
      "type": "SCALAR",
      "componentType": 5123,
      "count": 168,
      "bufferView": 1,
      "byteOffset": 8232
    },
    {
      "type": "VEC3",
      "componentType": 5126,
      "count": 762,
      "max": [
        0.34375,
        0.78125,
        1.875
      ],
      "min": [
        -0.15625,
        -0.15627974271774292,
        -0.25972771644592285
      ],
      "bufferView": 2,
      "byteOffset": 0
    },
    {
      "type": "VEC3",
      "componentType": 5126,
      "count": 762,
      "bufferView": 2,
      "byteOffset": 12
    },
    {
      "type": "VEC2",
      "componentType": 5126,
      "count": 762,
      "bufferView": 2,
      "byteOffset": 24
    },
    {
      "type": "VEC3",
      "componentType": 5126,
      "count": 48,
      "max": [
        -0.17499999701976776,
        0.07249999791383743,
        0.234375
      ],
      "min": [
        -0.512499988079071,
        0,
        -0.078125
      ],
      "bufferView": 3,
      "byteOffset": 0
    },
    {
      "type": "VEC2",
      "componentType": 5126,
      "count": 48,
      "bufferView": 3,
      "byteOffset": 12
    },
    {
      "type": "VEC3",
      "componentType": 5126,
      "count": 48,
      "bufferView": 3,
      "byteOffset": 20
    },
    {
      "type": "VEC3",
      "componentType": 5126,
      "count": 1068,
      "max": [
        0.06658931821584702,
        0.28125,
        1.6875
      ],
      "min": [
        -0.13187797367572784,
        -0.6562797427177429,
        -0.0625
      ],
      "bufferView": 4,
      "byteOffset": 0
    },
    {
      "type": "VEC3",
      "componentType": 5126,
      "count": 1068,
      "bufferView": 4,
      "byteOffset": 12
    },
    {
      "type": "VEC3",
      "componentType": 5126,
      "count": 168,
      "max": [
        0.09375,
        0.0000625000029685907,
        0.25
      ],
      "min": [
        -0.21875,
        0,
        -0.0625
      ],
      "bufferView": 5,
      "byteOffset": 0
    },
    {
      "type": "VEC3",
      "componentType": 5126,
      "count": 168,
      "bufferView": 5,
      "byteOffset": 12
    },
    {
      "type": "VEC2",
      "componentType": 5126,
      "count": 111,
      "bufferView": 6,
      "byteOffset": 0
    },
    {
      "type": "VEC3",
      "componentType": 5126,
      "count": 111,
      "max": [
        0.09375,
        0.0000625000029685907,
        0.25
      ],
      "min": [
        -0.15625,
        0,
        -0.0625
      ],
      "bufferView": 6,
      "byteOffset": 8
    },
    {
      "type": "VEC3",
      "componentType": 5126,
      "count": 111,
      "bufferView": 6,
      "byteOffset": 20
    },
    {
      "type": "VEC3",
      "componentType": 5126,
      "count": 148,
      "max": [
        0.28125,
        0.0000625000029685907,
        0.25
      ],
      "min": [
        0.03125,
        0,
        -0.0625
      ],
      "bufferView": 7,
      "byteOffset": 0
    },
    {
      "type": "VEC3",
      "componentType": 5126,
      "count": 148,
      "bufferView": 7,
      "byteOffset": 12
    },
    {
      "type": "VEC2",
      "componentType": 5126,
      "count": 110,
      "bufferView": 8,
      "byteOffset": 0
    },
    {
      "type": "VEC3",
      "componentType": 5126,
      "count": 110,
      "max": [
        0.28125,
        0.0000625000029685907,
        0.25
      ],
      "min": [
        0.03125,
        0,
        -0.0625
      ],
      "bufferView": 8,
      "byteOffset": 8
    },
    {
      "type": "VEC3",
      "componentType": 5126,
      "count": 110,
      "bufferView": 8,
      "byteOffset": 20
    }
  ],
  "bufferViews": [
    {
      "buffer": 0,
      "byteOffset": 0,
      "byteLength": 260
    },
    {
      "buffer": 0,
      "byteOffset": 260,
      "byteLength": 8568,
      "target": 34963
    },
    {
      "buffer": 0,
      "byteOffset": 8828,
      "byteLength": 24384,
      "byteStride": 32,
      "target": 34962
    },
    {
      "buffer": 0,
      "byteOffset": 33212,
      "byteLength": 1536,
      "byteStride": 32,
      "target": 34962
    },
    {
      "buffer": 0,
      "byteOffset": 34748,
      "byteLength": 25632,
      "byteStride": 24,
      "target": 34962
    },
    {
      "buffer": 0,
      "byteOffset": 60380,
      "byteLength": 4032,
      "byteStride": 24,
      "target": 34962
    },
    {
      "buffer": 0,
      "byteOffset": 64412,
      "byteLength": 3552,
      "byteStride": 32,
      "target": 34962
    },
    {
      "buffer": 0,
      "byteOffset": 67964,
      "byteLength": 3552,
      "byteStride": 24,
      "target": 34962
    },
    {
      "buffer": 0,
      "byteOffset": 71516,
      "byteLength": 3520,
      "byteStride": 32,
      "target": 34962
    }
  ],
  "samplers": [
    {
      "magFilter": 9728,
      "minFilter": 9728,
      "wrapS": 33071,
      "wrapT": 33071
    }
  ],
  "textures": [
    {
      "source": 0,
      "sampler": 0
    }
  ],
  "images": [
    {
      "mimeType": "image/png",
      "uri": "baseColor.png"
    }
  ],
  "buffers": [
    {
      "uri": "grouper.bin",
      "byteLength": 75036
    }
  ],
  "materials": [
    {
      "alphaMode": "MASK",
      "alphaCutoff": 0.05,
      "doubleSided": true,
      "pbrMetallicRoughness": {
        "metallicFactor": 0,
        "baseColorTexture": {
          "index": 0
        }
      }
    },
    {
      "alphaMode": "MASK",
      "alphaCutoff": 0.05,
      "doubleSided": true,
      "pbrMetallicRoughness": {
        "metallicFactor": 0
      }
    }
  ],
  "meshes": [
    {
      "primitives": [
        {
          "attributes": {
            "POSITION": 13,
            "NORMAL": 14,
            "TEXCOORD_0": 15
          },
          "mode": 4,
          "material": 0,
          "indices": 6
        }
      ]
    },
    {
      "primitives": [
        {
          "attributes": {
            "POSITION": 16,
            "TEXCOORD_0": 17,
            "NORMAL": 18
          },
          "mode": 4,
          "material": 0,
          "indices": 7
        }
      ]
    },
    {
      "primitives": [
        {
          "attributes": {
            "POSITION": 19,
            "NORMAL": 20
          },
          "mode": 4,
          "material": 1,
          "indices": 8
        }
      ]
    },
    {
      "primitives": [
        {
          "attributes": {
            "POSITION": 21,
            "NORMAL": 22
          },
          "mode": 4,
          "material": 1,
          "indices": 9
        }
      ]
    },
    {
      "primitives": [
        {
          "attributes": {
            "TEXCOORD_0": 23,
            "POSITION": 24,
            "NORMAL": 25
          },
          "mode": 4,
          "material": 0,
          "indices": 10
        }
      ]
    },
    {
      "primitives": [
        {
          "attributes": {
            "POSITION": 26,
            "NORMAL": 27
          },
          "mode": 4,
          "material": 1,
          "indices": 11
        },
        {
          "attributes": {
            "TEXCOORD_0": 28,
            "POSITION": 29,
            "NORMAL": 30
          },
          "mode": 4,
          "material": 0,
          "indices": 12
        }
      ]
    }
  ],
  "nodes": [
    {
      "name": "cube",
      "translation": [
        -0.0625,
        0.3125,
        -0.6875
      ],
      "mesh": 0
    },
    {
      "name": "cube",
      "translation": [
        0.375,
        0.0625,
        -0.1875
      ],
      "rotation": [
        0.19509032201612825,
        0,
        0,
        0.9807852804032304
      ],
      "mesh": 1
    },
    {
      "name": "Bottom",
      "translation": [
        0,
        0,
        -0.625
      ],
      "children": [
        1
      ]
    },
    {
      "name": "Mouth",
      "translation": [
        0,
        0.3125,
        -0.125
      ],
      "children": [
        2
      ]
    },
    {
      "name": "cube",
      "translation": [
        0.0625,
        0.8125,
        -0.5
      ],
      "mesh": 2
    },
    {
      "name": "cube",
      "mesh": 3
    },
    {
      "name": "cube",
      "translation": [
        -0.0625,
        0,
        0
      ],
      "mesh": 4
    },
    {
      "name": "Left2",
      "translation": [
        -0.125,
        0.1875,
        0.25
      ],
      "children": [
        5,
        6
      ]
    },
    {
      "name": "cube",
      "translation": [
        -0.0625,
        0,
        -0.0625
      ],
      "mesh": 5
    },
    {
      "name": "right2",
      "translation": [
        0.4375,
        0.1875,
        0.3125
      ],
      "children": [
        8
      ]
    },
    {
      "name": "Side",
      "translation": [
        -0.125,
        0.3125,
        -0.5625
      ],
      "children": [
        7,
        9
      ]
    }
  ],
  "animations": [
    {
      "name": "swim",
      "samplers": [
        {
          "input": 0,
          "output": 1,
          "interpolation": "LINEAR"
        },
        {
          "input": 4,
          "output": 5,
          "interpolation": "LINEAR"
        },
        {
          "input": 2,
          "output": 3,
          "interpolation": "LINEAR"
        }
      ],
      "channels": [
        {
          "sampler": 0,
          "target": {
            "node": 2,
            "path": "rotation"
          }
        },
        {
          "sampler": 1,
          "target": {
            "node": 7,
            "path": "rotation"
          }
        },
        {
          "sampler": 2,
          "target": {
            "node": 9,
            "path": "rotation"
          }
        }
      ]
    }
  ],
  "scenes": [
    {
      "name": "blockbench_export",
      "nodes": [
        0,
        3,
        4,
        10
      ]
    }
  ],
  "scene": 0
}