{"asset":{"version":"2.0","generator":"Blockbench 4.12.1 glTF exporter"},"scenes":[{"nodes":[17],"name":"blockbench_export"}],"scene":0,"nodes":[{"translation":[0,0.25,-0.25],"name":"cube","mesh":0},{"name":"cube","mesh":1},{"translation":[0,-0.0625,0],"name":"cube","mesh":2},{"rotation":[0,0,-0.13052619222005157,0.9914448613738104],"translation":[0,0.1875,-0.0625],"name":"L Fin","children":[1,2]},{"name":"cube","mesh":3},{"translation":[0,0.0625,0],"name":"cube","mesh":4},{"rotation":[0,0,0.10886687485196457,0.9940563382223196],"translation":[0.25,0.125,-0.0625],"name":"R fin","children":[4,5]},{"translation":[0.0625,-0.0625,0],"name":"cube","mesh":5},{"translation":[0.0625,-0.125,0.125],"name":"cube","mesh":6},{"translation":[0.0625,0.0625,0.1875],"name":"cube","mesh":7},{"translation":[0.0625,-0.125,0.1875],"name":"cube","mesh":8},{"translation":[0,0.3125,0.375],"name":"Tail","children":[7,8,9,10]},{"translation":[0,-0.1875,0.125],"name":"cube","mesh":9},{"translation":[0.0625,0,0.3125],"name":"cube","mesh":10},{"translation":[0.0625,0,0.0625],"name":"cube","mesh":11},{"translation":[0,-0.25,-0.0625],"name":"cube","mesh":12},{"translation":[0,0.4375,-0.125],"name":"Body","children":[12,13,14,15]},{"children":[0,3,6,11,16]}],"bufferViews":[{"buffer":0,"byteOffset":0,"byteLength":288,"target":34962,"byteStride":12},{"buffer":0,"byteOffset":288,"byteLength":288,"target":34962,"byteStride":12},{"buffer":0,"byteOffset":576,"byteLength":192,"target":34962,"byteStride":8},{"buffer":0,"byteOffset":768,"byteLength":48,"target":34963},{"buffer":0,"byteOffset":816,"byteLength":12,"target":34963},{"buffer":0,"byteOffset":828,"byteLength":12,"target":34963},{"buffer":0,"byteOffset":840,"byteLength":288,"target":34962,"byteStride":12},{"buffer":0,"byteOffset":1128,"byteLength":288,"target":34962,"byteStride":12},{"buffer":0,"byteOffset":1416,"byteLength":192,"target":34962,"byteStride":8},{"buffer":0,"byteOffset":1608,"byteLength":24,"target":34963},{"buffer":0,"byteOffset":1632,"byteLength":12,"target":34963},{"buffer":0,"byteOffset":1644,"byteLength":12,"target":34963},{"buffer":0,"byteOffset":1656,"byteLength":12,"target":34963},{"buffer":0,"byteOffset":1668,"byteLength":12,"target":34963},{"buffer":0,"byteOffset":1680,"byteLength":288,"target":34962,"byteStride":12},{"buffer":0,"byteOffset":1968,"byteLength":288,"target":34962,"byteStride":12},{"buffer":0,"byteOffset":2256,"byteLength":192,"target":34962,"byteStride":8},{"buffer":0,"byteOffset":2448,"byteLength":24,"target":34963},{"buffer":0,"byteOffset":2472,"byteLength":12,"target":34963},{"buffer":0,"byteOffset":2484,"byteLength":12,"target":34963},{"buffer":0,"byteOffset":2496,"byteLength":12,"target":34963},{"buffer":0,"byteOffset":2508,"byteLength":12,"target":34963},{"buffer":0,"byteOffset":2520,"byteLength":288,"target":34962,"byteStride":12},{"buffer":0,"byteOffset":2808,"byteLength":288,"target":34962,"byteStride":12},{"buffer":0,"byteOffset":3096,"byteLength":192,"target":34962,"byteStride":8},{"buffer":0,"byteOffset":3288,"byteLength":24,"target":34963},{"buffer":0,"byteOffset":3312,"byteLength":12,"target":34963},{"buffer":0,"byteOffset":3324,"byteLength":12,"target":34963},{"buffer":0,"byteOffset":3336,"byteLength":12,"target":34963},{"buffer":0,"byteOffset":3348,"byteLength":12,"target":34963},{"buffer":0,"byteOffset":3360,"byteLength":288,"target":34962,"byteStride":12},{"buffer":0,"byteOffset":3648,"byteLength":288,"target":34962,"byteStride":12},{"buffer":0,"byteOffset":3936,"byteLength":192,"target":34962,"byteStride":8},{"buffer":0,"byteOffset":4128,"byteLength":24,"target":34963},{"buffer":0,"byteOffset":4152,"byteLength":12,"target":34963},{"buffer":0,"byteOffset":4164,"byteLength":12,"target":34963},{"buffer":0,"byteOffset":4176,"byteLength":12,"target":34963},{"buffer":0,"byteOffset":4188,"byteLength":12,"target":34963},{"buffer":0,"byteOffset":4200,"byteLength":288,"target":34962,"byteStride":12},{"buffer":0,"byteOffset":4488,"byteLength":288,"target":34962,"byteStride":12},{"buffer":0,"byteOffset":4776,"byteLength":192,"target":34962,"byteStride":8},{"buffer":0,"byteOffset":4968,"byteLength":24,"target":34963},{"buffer":0,"byteOffset":4992,"byteLength":12,"target":34963},{"buffer":0,"byteOffset":5004,"byteLength":12,"target":34963},{"buffer":0,"byteOffset":5016,"byteLength":12,"target":34963},{"buffer":0,"byteOffset":5028,"byteLength":12,"target":34963},{"buffer":0,"byteOffset":5040,"byteLength":288,"target":34962,"byteStride":12},{"buffer":0,"byteOffset":5328,"byteLength":288,"target":34962,"byteStride":12},{"buffer":0,"byteOffset":5616,"byteLength":192,"target":34962,"byteStride":8},{"buffer":0,"byteOffset":5808,"byteLength":24,"target":34963},{"buffer":0,"byteOffset":5832,"byteLength":12,"target":34963},{"buffer":0,"byteOffset":5844,"byteLength":12,"target":34963},{"buffer":0,"byteOffset":5856,"byteLength":12,"target":34963},{"buffer":0,"byteOffset":5868,"byteLength":12,"target":34963},{"buffer":0,"byteOffset":5880,"byteLength":288,"target":34962,"byteStride":12},{"buffer":0,"byteOffset":6168,"byteLength":288,"target":34962,"byteStride":12},{"buffer":0,"byteOffset":6456,"byteLength":192,"target":34962,"byteStride":8},{"buffer":0,"byteOffset":6648,"byteLength":24,"target":34963},{"buffer":0,"byteOffset":6672,"byteLength":12,"target":34963},{"buffer":0,"byteOffset":6684,"byteLength":12,"target":34963},{"buffer":0,"byteOffset":6696,"byteLength":12,"target":34963},{"buffer":0,"byteOffset":6708,"byteLength":12,"target":34963},{"buffer":0,"byteOffset":6720,"byteLength":288,"target":34962,"byteStride":12},{"buffer":0,"byteOffset":7008,"byteLength":288,"target":34962,"byteStride":12},{"buffer":0,"byteOffset":7296,"byteLength":192,"target":34962,"byteStride":8},{"buffer":0,"byteOffset":7488,"byteLength":24,"target":34963},{"buffer":0,"byteOffset":7512,"byteLength":12,"target":34963},{"buffer":0,"byteOffset":7524,"byteLength":12,"target":34963},{"buffer":0,"byteOffset":7536,"byteLength":12,"target":34963},{"buffer":0,"byteOffset":7548,"byteLength":12,"target":34963},{"buffer":0,"byteOffset":7560,"byteLength":288,"target":34962,"byteStride":12},{"buffer":0,"byteOffset":7848,"byteLength":288,"target":34962,"byteStride":12},{"buffer":0,"byteOffset":8136,"byteLength":192,"target":34962,"byteStride":8},{"buffer":0,"byteOffset":8328,"byteLength":72,"target":34963},{"buffer":0,"byteOffset":8400,"byteLength":288,"target":34962,"byteStride":12},{"buffer":0,"byteOffset":8688,"byteLength":288,"target":34962,"byteStride":12},{"buffer":0,"byteOffset":8976,"byteLength":192,"target":34962,"byteStride":8},{"buffer":0,"byteOffset":9168,"byteLength":72,"target":34963},{"buffer":0,"byteOffset":9240,"byteLength":288,"target":34962,"byteStride":12},{"buffer":0,"byteOffset":9528,"byteLength":288,"target":34962,"byteStride":12},{"buffer":0,"byteOffset":9816,"byteLength":192,"target":34962,"byteStride":8},{"buffer":0,"byteOffset":10008,"byteLength":72,"target":34963},{"buffer":0,"byteOffset":10080,"byteLength":288,"target":34962,"byteStride":12},{"buffer":0,"byteOffset":10368,"byteLength":288,"target":34962,"byteStride":12},{"buffer":0,"byteOffset":10656,"byteLength":192,"target":34962,"byteStride":8},{"buffer":0,"byteOffset":10848,"byteLength":24,"target":34963},{"buffer":0,"byteOffset":10872,"byteLength":12,"target":34963},{"buffer":0,"byteOffset":10884,"byteLength":36,"target":34963},{"buffer":0,"byteOffset":10920,"byteLength":20},{"buffer":0,"byteOffset":10940,"byteLength":80}],"buffers":[{"byteLength":11020,"uri":"data:application/octet-stream;base64,"}],"accessors":[{"bufferView":0,"componentType":5126,"count":24,"max":[0.0625,0.1875,0.1875],"min":[-0.0625,0,-0.0625],"type":"VEC3"},{"bufferView":1,"componentType":5126,"count":24,"max":[1,1,1],"min":[-1,-1,-1],"type":"VEC3"},{"bufferView":2,"componentType":5126,"count":24,"max":[0.5,0.78125],"min":[0,0],"type":"VEC2"},{"bufferView":3,"componentType":5123,"count":24,"max":[15],"min":[0],"type":"SCALAR"},{"bufferView":4,"componentType":5123,"count":6,"max":[19],"min":[16],"type":"SCALAR"},{"bufferView":5,"componentType":5123,"count":6,"max":[23],"min":[20],"type":"SCALAR"},{"bufferView":6,"componentType":5126,"count":24,"max":[-0.09993749856948853,0.0625,0.0625],"min":[-0.10000000149011612,0,-0.0625],"type":"VEC3"},{"bufferView":7,"componentType":5126,"count":24,"max":[1,1,1],"min":[-1,-1,-1],"type":"VEC3"},{"bufferView":8,"componentType":5126,"count":24,"max":[0.71875,0.65625],"min":[0,0],"type":"VEC2"},{"bufferView":9,"componentType":5123,"count":12,"max":[7],"min":[0],"type":"SCALAR"},{"bufferView":10,"componentType":5123,"count":6,"max":[11],"min":[8],"type":"SCALAR"},{"bufferView":11,"componentType":5123,"count":6,"max":[15],"min":[12],"type":"SCALAR"},{"bufferView":12,"componentType":5123,"count":6,"max":[19],"min":[16],"type":"SCALAR"},{"bufferView":13,"componentType":5123,"count":6,"max":[23],"min":[20],"type":"SCALAR"},{"bufferView":14,"componentType":5126,"count":24,"max":[-0.09993749856948853,0.0625,0],"min":[-0.10000000149011612,0,-0.0625],"type":"VEC3"},{"bufferView":15,"componentType":5126,"count":24,"max":[1,1,1],"min":[-1,-1,-1],"type":"VEC3"},{"bufferView":16,"componentType":5126,"count":24,"max":[0.71875,0.71875],"min":[0,0],"type":"VEC2"},{"bufferView":17,"componentType":5123,"count":12,"max":[7],"min":[0],"type":"SCALAR"},{"bufferView":18,"componentType":5123,"count":6,"max":[11],"min":[8],"type":"SCALAR"},{"bufferView":19,"componentType":5123,"count":6,"max":[15],"min":[12],"type":"SCALAR"},{"bufferView":20,"componentType":5123,"count":6,"max":[19],"min":[16],"type":"SCALAR"},{"bufferView":21,"componentType":5123,"count":6,"max":[23],"min":[20],"type":"SCALAR"},{"bufferView":22,"componentType":5126,"count":24,"max":[-0.1249374970793724,0.125,0],"min":[-0.125,0.0625,-0.0625],"type":"VEC3"},{"bufferView":23,"componentType":5126,"count":24,"max":[1,1,1],"min":[-1,-1,-1],"type":"VEC3"},{"bufferView":24,"componentType":5126,"count":24,"max":[0.71875,0.09375],"min":[0,0],"type":"VEC2"},{"bufferView":25,"componentType":5123,"count":12,"max":[7],"min":[0],"type":"SCALAR"},{"bufferView":26,"componentType":5123,"count":6,"max":[11],"min":[8],"type":"SCALAR"},{"bufferView":27,"componentType":5123,"count":6,"max":[15],"min":[12],"type":"SCALAR"},{"bufferView":28,"componentType":5123,"count":6,"max":[19],"min":[16],"type":"SCALAR"},{"bufferView":29,"componentType":5123,"count":6,"max":[23],"min":[20],"type":"SCALAR"},{"bufferView":30,"componentType":5126,"count":24,"max":[-0.1249374970793724,0.125,0.0625],"min":[-0.125,0.0625,-0.0625],"type":"VEC3"},{"bufferView":31,"componentType":5126,"count":24,"max":[1,1,1],"min":[-1,-1,-1],"type":"VEC3"},{"bufferView":32,"componentType":5126,"count":24,"max":[0.71875,0.125],"min":[0,0],"type":"VEC2"},{"bufferView":33,"componentType":5123,"count":12,"max":[7],"min":[0],"type":"SCALAR"},{"bufferView":34,"componentType":5123,"count":6,"max":[11],"min":[8],"type":"SCALAR"},{"bufferView":35,"componentType":5123,"count":6,"max":[15],"min":[12],"type":"SCALAR"},{"bufferView":36,"componentType":5123,"count":6,"max":[19],"min":[16],"type":"SCALAR"},{"bufferView":37,"componentType":5123,"count":6,"max":[23],"min":[20],"type":"SCALAR"},{"bufferView":38,"componentType":5126,"count":24,"max":[-0.062437500804662704,0.125,0.0625],"min":[-0.0625,0,-0.0625],"type":"VEC3"},{"bufferView":39,"componentType":5126,"count":24,"max":[1,1,1],"min":[-1,-1,-1],"type":"VEC3"},{"bufferView":40,"componentType":5126,"count":24,"max":[0.5625,0.53125],"min":[0,0],"type":"VEC2"},{"bufferView":41,"componentType":5123,"count":12,"max":[7],"min":[0],"type":"SCALAR"},{"bufferView":42,"componentType":5123,"count":6,"max":[11],"min":[8],"type":"SCALAR"},{"bufferView":43,"componentType":5123,"count":6,"max":[15],"min":[12],"type":"SCALAR"},{"bufferView":44,"componentType":5123,"count":6,"max":[19],"min":[16],"type":"SCALAR"},{"bufferView":45,"componentType":5123,"count":6,"max":[23],"min":[20],"type":"SCALAR"},{"bufferView":46,"componentType":5126,"count":24,"max":[-0.062437500804662704,0.25,0],"min":[-0.0625,0,-0.0625],"type":"VEC3"},{"bufferView":47,"componentType":5126,"count":24,"max":[1,1,1],"min":[-1,-1,-1],"type":"VEC3"},{"bufferView":48,"componentType":5126,"count":24,"max":[0.59375,0.5625],"min":[0,0],"type":"VEC2"},{"bufferView":49,"componentType":5123,"count":12,"max":[7],"min":[0],"type":"SCALAR"},{"bufferView":50,"componentType":5123,"count":6,"max":[11],"min":[8],"type":"SCALAR"},{"bufferView":51,"componentType":5123,"count":6,"max":[15],"min":[12],"type":"SCALAR"},{"bufferView":52,"componentType":5123,"count":6,"max":[19],"min":[16],"type":"SCALAR"},{"bufferView":53,"componentType":5123,"count":6,"max":[23],"min":[20],"type":"SCALAR"},{"bufferView":54,"componentType":5126,"count":24,"max":[-0.062437500804662704,0.0625,0],"min":[-0.0625,0,-0.0625],"type":"VEC3"},{"bufferView":55,"componentType":5126,"count":24,"max":[1,1,1],"min":[-1,-1,-1],"type":"VEC3"},{"bufferView":56,"componentType":5126,"count":24,"max":[0.625,0.46875],"min":[0,0],"type":"VEC2"},{"bufferView":57,"componentType":5123,"count":12,"max":[7],"min":[0],"type":"SCALAR"},{"bufferView":58,"componentType":5123,"count":6,"max":[11],"min":[8],"type":"SCALAR"},{"bufferView":59,"componentType":5123,"count":6,"max":[15],"min":[12],"type":"SCALAR"},{"bufferView":60,"componentType":5123,"count":6,"max":[19],"min":[16],"type":"SCALAR"},{"bufferView":61,"componentType":5123,"count":6,"max":[23],"min":[20],"type":"SCALAR"},{"bufferView":62,"componentType":5126,"count":24,"max":[-0.062437500804662704,0.0625,0],"min":[-0.0625,0,-0.0625],"type":"VEC3"},{"bufferView":63,"componentType":5126,"count":24,"max":[1,1,1],"min":[-1,-1,-1],"type":"VEC3"},{"bufferView":64,"componentType":5126,"count":24,"max":[0.625,0.5625],"min":[0,0],"type":"VEC2"},{"bufferView":65,"componentType":5123,"count":12,"max":[7],"min":[0],"type":"SCALAR"},{"bufferView":66,"componentType":5123,"count":6,"max":[11],"min":[8],"type":"SCALAR"},{"bufferView":67,"componentType":5123,"count":6,"max":[15],"min":[12],"type":"SCALAR"},{"bufferView":68,"componentType":5123,"count":6,"max":[19],"min":[16],"type":"SCALAR"},{"bufferView":69,"componentType":5123,"count":6,"max":[23],"min":[20],"type":"SCALAR"},{"bufferView":70,"componentType":5126,"count":24,"max":[0.0625,0.1875,0.375],"min":[-0.0625,0,-0.0625],"type":"VEC3"},{"bufferView":71,"componentType":5126,"count":24,"max":[1,1,1],"min":[-1,-1,-1],"type":"VEC3"},{"bufferView":72,"componentType":5126,"count":24,"max":[0.71875,0.78125],"min":[0,0],"type":"VEC2"},{"bufferView":73,"componentType":5123,"count":36,"max":[23],"min":[0],"type":"SCALAR"},{"bufferView":74,"componentType":5126,"count":24,"max":[-0.062437500804662704,0.0625,0.125],"min":[-0.0625,0,-0.0625],"type":"VEC3"},{"bufferView":75,"componentType":5126,"count":24,"max":[1,1,1],"min":[-1,-1,-1],"type":"VEC3"},{"bufferView":76,"componentType":5126,"count":24,"max":[0.1875,0.1875],"min":[0,0],"type":"VEC2"},{"bufferView":77,"componentType":5123,"count":36,"max":[23],"min":[0],"type":"SCALAR"},{"bufferView":78,"componentType":5126,"count":24,"max":[-0.062437500804662704,0.0625,0.0625],"min":[-0.0625,0,-0.0625],"type":"VEC3"},{"bufferView":79,"componentType":5126,"count":24,"max":[1,1,1],"min":[-1,-1,-1],"type":"VEC3"},{"bufferView":80,"componentType":5126,"count":24,"max":[0.125,0.125],"min":[0,0],"type":"VEC2"},{"bufferView":81,"componentType":5123,"count":36,"max":[23],"min":[0],"type":"SCALAR"},{"bufferView":82,"componentType":5126,"count":24,"max":[0.0625,0.0625,0.5625],"min":[-0.0625,0.012500000186264515,-0.0625],"type":"VEC3"},{"bufferView":83,"componentType":5126,"count":24,"max":[1,1,1],"min":[-1,-1,-1],"type":"VEC3"},{"bufferView":84,"componentType":5126,"count":24,"max":[0.6875,0.6875],"min":[0,0],"type":"VEC2"},{"bufferView":85,"componentType":5123,"count":12,"max":[7],"min":[0],"type":"SCALAR"},{"bufferView":86,"componentType":5123,"count":6,"max":[11],"min":[8],"type":"SCALAR"},{"bufferView":87,"componentType":5123,"count":18,"max":[23],"min":[12],"type":"SCALAR"},{"bufferView":88,"componentType":5126,"count":5,"max":[2],"min":[0],"type":"SCALAR"},{"bufferView":89,"componentType":5126,"count":5,"max":[0,0.08715574443340302,0,1],"min":[0,-0.08715574443340302,0,0.9961947202682495],"type":"VEC4"}],"materials":[{"pbrMetallicRoughness":{"metallicFactor":0,"roughnessFactor":1,"baseColorTexture":{"index":0}},"alphaMode":"MASK","alphaCutoff":0.05,"doubleSided":true},{"pbrMetallicRoughness":{"metallicFactor":0,"roughnessFactor":1},"alphaMode":"MASK","alphaCutoff":0.05,"doubleSided":true},{"pbrMetallicRoughness":{"metallicFactor":0,"roughnessFactor":1},"alphaMode":"MASK","alphaCutoff":0.05,"doubleSided":true},{"pbrMetallicRoughness":{"metallicFactor":0,"roughnessFactor":1},"alphaMode":"MASK","alphaCutoff":0.05,"doubleSided":true}],"textures":[{"sampler":0,"source":0}],"samplers":[{"magFilter":9728,"minFilter":9728,"wrapS":33071,"wrapT":33071}],"images":[{"mimeType":"image/png","uri":"data:image/png;base64,"}],"meshes":[{"primitives":[{"mode":4,"attributes":{"POSITION":0,"NORMAL":1,"TEXCOORD_0":2},"indices":3,"material":0},{"mode":4,"attributes":{"POSITION":0,"NORMAL":1,"TEXCOORD_0":2},"indices":4,"material":1},{"mode":4,"attributes":{"POSITION":0,"NORMAL":1,"TEXCOORD_0":2},"indices":5,"material":0}]},{"primitives":[{"mode":4,"attributes":{"POSITION":6,"NORMAL":7,"TEXCOORD_0":8},"indices":9,"material":0},{"mode":4,"attributes":{"POSITION":6,"NORMAL":7,"TEXCOORD_0":8},"indices":10,"material":2},{"mode":4,"attributes":{"POSITION":6,"NORMAL":7,"TEXCOORD_0":8},"indices":11,"material":2},{"mode":4,"attributes":{"POSITION":6,"NORMAL":7,"TEXCOORD_0":8},"indices":12,"material":2},{"mode":4,"attributes":{"POSITION":6,"NORMAL":7,"TEXCOORD_0":8},"indices":13,"material":2}]},{"primitives":[{"mode":4,"attributes":{"POSITION":14,"NORMAL":15,"TEXCOORD_0":16},"indices":17,"material":0},{"mode":4,"attributes":{"POSITION":14,"NORMAL":15,"TEXCOORD_0":16},"indices":18,"material":2},{"mode":4,"attributes":{"POSITION":14,"NORMAL":15,"TEXCOORD_0":16},"indices":19,"material":2},{"mode":4,"attributes":{"POSITION":14,"NORMAL":15,"TEXCOORD_0":16},"indices":20,"material":2},{"mode":4,"attributes":{"POSITION":14,"NORMAL":15,"TEXCOORD_0":16},"indices":21,"material":2}]},{"primitives":[{"mode":4,"attributes":{"POSITION":22,"NORMAL":23,"TEXCOORD_0":24},"indices":25,"material":0},{"mode":4,"attributes":{"POSITION":22,"NORMAL":23,"TEXCOORD_0":24},"indices":26,"material":3},{"mode":4,"attributes":{"POSITION":22,"NORMAL":23,"TEXCOORD_0":24},"indices":27,"material":3},{"mode":4,"attributes":{"POSITION":22,"NORMAL":23,"TEXCOORD_0":24},"indices":28,"material":3},{"mode":4,"attributes":{"POSITION":22,"NORMAL":23,"TEXCOORD_0":24},"indices":29,"material":3}]},{"primitives":[{"mode":4,"attributes":{"POSITION":30,"NORMAL":31,"TEXCOORD_0":32},"indices":33,"material":0},{"mode":4,"attributes":{"POSITION":30,"NORMAL":31,"TEXCOORD_0":32},"indices":34,"material":3},{"mode":4,"attributes":{"POSITION":30,"NORMAL":31,"TEXCOORD_0":32},"indices":35,"material":3},{"mode":4,"attributes":{"POSITION":30,"NORMAL":31,"TEXCOORD_0":32},"indices":36,"material":3},{"mode":4,"attributes":{"POSITION":30,"NORMAL":31,"TEXCOORD_0":32},"indices":37,"material":3}]},{"primitives":[{"mode":4,"attributes":{"POSITION":38,"NORMAL":39,"TEXCOORD_0":40},"indices":41,"material":0},{"mode":4,"attributes":{"POSITION":38,"NORMAL":39,"TEXCOORD_0":40},"indices":42,"material":3},{"mode":4,"attributes":{"POSITION":38,"NORMAL":39,"TEXCOORD_0":40},"indices":43,"material":3},{"mode":4,"attributes":{"POSITION":38,"NORMAL":39,"TEXCOORD_0":40},"indices":44,"material":3},{"mode":4,"attributes":{"POSITION":38,"NORMAL":39,"TEXCOORD_0":40},"indices":45,"material":3}]},{"primitives":[{"mode":4,"attributes":{"POSITION":46,"NORMAL":47,"TEXCOORD_0":48},"indices":49,"material":0},{"mode":4,"attributes":{"POSITION":46,"NORMAL":47,"TEXCOORD_0":48},"indices":50,"material":3},{"mode":4,"attributes":{"POSITION":46,"NORMAL":47,"TEXCOORD_0":48},"indices":51,"material":3},{"mode":4,"attributes":{"POSITION":46,"NORMAL":47,"TEXCOORD_0":48},"indices":52,"material":3},{"mode":4,"attributes":{"POSITION":46,"NORMAL":47,"TEXCOORD_0":48},"indices":53,"material":3}]},{"primitives":[{"mode":4,"attributes":{"POSITION":54,"NORMAL":55,"TEXCOORD_0":56},"indices":57,"material":0},{"mode":4,"attributes":{"POSITION":54,"NORMAL":55,"TEXCOORD_0":56},"indices":58,"material":3},{"mode":4,"attributes":{"POSITION":54,"NORMAL":55,"TEXCOORD_0":56},"indices":59,"material":3},{"mode":4,"attributes":{"POSITION":54,"NORMAL":55,"TEXCOORD_0":56},"indices":60,"material":3},{"mode":4,"attributes":{"POSITION":54,"NORMAL":55,"TEXCOORD_0":56},"indices":61,"material":3}]},{"primitives":[{"mode":4,"attributes":{"POSITION":62,"NORMAL":63,"TEXCOORD_0":64},"indices":65,"material":0},{"mode":4,"attributes":{"POSITION":62,"NORMAL":63,"TEXCOORD_0":64},"indices":66,"material":3},{"mode":4,"attributes":{"POSITION":62,"NORMAL":63,"TEXCOORD_0":64},"indices":67,"material":3},{"mode":4,"attributes":{"POSITION":62,"NORMAL":63,"TEXCOORD_0":64},"indices":68,"material":3},{"mode":4,"attributes":{"POSITION":62,"NORMAL":63,"TEXCOORD_0":64},"indices":69,"material":3}]},{"primitives":[{"mode":4,"attributes":{"POSITION":70,"NORMAL":71,"TEXCOORD_0":72},"indices":73,"material":0}]},{"primitives":[{"mode":4,"attributes":{"POSITION":74,"NORMAL":75,"TEXCOORD_0":76},"indices":77,"material":3}]},{"primitives":[{"mode":4,"attributes":{"POSITION":78,"NORMAL":79,"TEXCOORD_0":80},"indices":81,"material":3}]},{"primitives":[{"mode":4,"attributes":{"POSITION":82,"NORMAL":83,"TEXCOORD_0":84},"indices":85,"material":0},{"mode":4,"attributes":{"POSITION":82,"NORMAL":83,"TEXCOORD_0":84},"indices":86,"material":1},{"mode":4,"attributes":{"POSITION":82,"NORMAL":83,"TEXCOORD_0":84},"indices":87,"material":0}]}],"animations":[{"name":"swim","samplers":[{"input":88,"output":89,"interpolation":"LINEAR"}],"channels":[{"sampler":0,"target":{"node":11,"path":"rotation"}}]}]}