{"asset":{"version":"2.0","generator":"Blockbench 4.12.1 glTF exporter"},"scenes":[{"nodes":[21],"name":"blockbench_export"}],"scene":0,"nodes":[{"name":"bone"},{"translation":[-0.125,0,-0.125],"name":"cube","mesh":0},{"translation":[-0.0625,0,0],"name":"cube","mesh":1},{"translation":[0,0,0.125],"name":"cube","mesh":2},{"translation":[0,0.3125,-0.125],"name":"Body","children":[1,2,3]},{"rotation":[0,0,0.3420201433256687,0.9396926207859084],"translation":[-0.03125,-0.0625,-0.25],"name":"cube","mesh":3},{"rotation":[0,0,0.3420201433256687,0.9396926207859084],"translation":[-0.09375,-0.125,0.1875],"name":"cube","mesh":4},{"translation":[-0.21875,0.375,0.0625],"name":"Left","children":[5,6]},{"translation":[0.375,0.3125,0.25],"name":"bone"},{"rotation":[0,0,-0.3420201433256687,0.9396926207859084],"translation":[0.0625,-0.0625,-0.1875],"name":"cube","mesh":5},{"rotation":[0,0,-0.3420201433256687,0.9396926207859084],"translation":[0.0625,-0.0625,0.25],"name":"cube","mesh":6},{"translation":[0.3125,0.375,0],"name":"Right","children":[8,9,10]},{"name":"Fins","children":[7,11]},{"translation":[0.0625,0,0.3125],"name":"cube","mesh":7},{"translation":[0.1875,0,0.5],"name":"cube","mesh":8},{"translation":[0,0.3125,0],"name":"Tail","children":[13,14]},{"rotation":[-0.06540312923014306,0,0,0.9978589232386035],"translation":[0.125,-0.0625,-0.0625],"name":"cube","mesh":9},{"translation":[0.125,-0.0625,0.125],"name":"cube","mesh":10},{"rotation":[0.1521233861899167,0,0,0.9883615104677607],"translation":[0.125,-0.125,0.3125],"name":"cube","mesh":11},{"rotation":[0.23768589232617307,0,0,0.9713420698132614],"translation":[0.125,-0.25,0.4375],"name":"cube","mesh":12},{"translation":[0,0.875,-0.125],"name":"Top","children":[16,17,18,19]},{"children":[0,4,12,15,20]}],"bufferViews":[{"buffer":0,"byteOffset":0,"byteLength":288,"target":34962,"byteStride":12},{"buffer":0,"byteOffset":288,"byteLength":288,"target":34962,"byteStride":12},{"buffer":0,"byteOffset":576,"byteLength":192,"target":34962,"byteStride":8},{"buffer":0,"byteOffset":768,"byteLength":72,"target":34963},{"buffer":0,"byteOffset":840,"byteLength":288,"target":34962,"byteStride":12},{"buffer":0,"byteOffset":1128,"byteLength":288,"target":34962,"byteStride":12},{"buffer":0,"byteOffset":1416,"byteLength":192,"target":34962,"byteStride":8},{"buffer":0,"byteOffset":1608,"byteLength":72,"target":34963},{"buffer":0,"byteOffset":1680,"byteLength":288,"target":34962,"byteStride":12},{"buffer":0,"byteOffset":1968,"byteLength":288,"target":34962,"byteStride":12},{"buffer":0,"byteOffset":2256,"byteLength":192,"target":34962,"byteStride":8},{"buffer":0,"byteOffset":2448,"byteLength":72,"target":34963},{"buffer":0,"byteOffset":2520,"byteLength":288,"target":34962,"byteStride":12},{"buffer":0,"byteOffset":2808,"byteLength":288,"target":34962,"byteStride":12},{"buffer":0,"byteOffset":3096,"byteLength":192,"target":34962,"byteStride":8},{"buffer":0,"byteOffset":3288,"byteLength":72,"target":34963},{"buffer":0,"byteOffset":3360,"byteLength":288,"target":34962,"byteStride":12},{"buffer":0,"byteOffset":3648,"byteLength":288,"target":34962,"byteStride":12},{"buffer":0,"byteOffset":3936,"byteLength":192,"target":34962,"byteStride":8},{"buffer":0,"byteOffset":4128,"byteLength":72,"target":34963},{"buffer":0,"byteOffset":4200,"byteLength":288,"target":34962,"byteStride":12},{"buffer":0,"byteOffset":4488,"byteLength":288,"target":34962,"byteStride":12},{"buffer":0,"byteOffset":4776,"byteLength":192,"target":34962,"byteStride":8},{"buffer":0,"byteOffset":4968,"byteLength":72,"target":34963},{"buffer":0,"byteOffset":5040,"byteLength":288,"target":34962,"byteStride":12},{"buffer":0,"byteOffset":5328,"byteLength":288,"target":34962,"byteStride":12},{"buffer":0,"byteOffset":5616,"byteLength":192,"target":34962,"byteStride":8},{"buffer":0,"byteOffset":5808,"byteLength":72,"target":34963},{"buffer":0,"byteOffset":5880,"byteLength":288,"target":34962,"byteStride":12},{"buffer":0,"byteOffset":6168,"byteLength":288,"target":34962,"byteStride":12},{"buffer":0,"byteOffset":6456,"byteLength":192,"target":34962,"byteStride":8},{"buffer":0,"byteOffset":6648,"byteLength":72,"target":34963},{"buffer":0,"byteOffset":6720,"byteLength":288,"target":34962,"byteStride":12},{"buffer":0,"byteOffset":7008,"byteLength":288,"target":34962,"byteStride":12},{"buffer":0,"byteOffset":7296,"byteLength":192,"target":34962,"byteStride":8},{"buffer":0,"byteOffset":7488,"byteLength":72,"target":34963},{"buffer":0,"byteOffset":7560,"byteLength":288,"target":34962,"byteStride":12},{"buffer":0,"byteOffset":7848,"byteLength":288,"target":34962,"byteStride":12},{"buffer":0,"byteOffset":8136,"byteLength":192,"target":34962,"byteStride":8},{"buffer":0,"byteOffset":8328,"byteLength":36,"target":34963},{"buffer":0,"byteOffset":8364,"byteLength":12,"target":34963},{"buffer":0,"byteOffset":8376,"byteLength":24,"target":34963},{"buffer":0,"byteOffset":8400,"byteLength":288,"target":34962,"byteStride":12},{"buffer":0,"byteOffset":8688,"byteLength":288,"target":34962,"byteStride":12},{"buffer":0,"byteOffset":8976,"byteLength":192,"target":34962,"byteStride":8},{"buffer":0,"byteOffset":9168,"byteLength":72,"target":34963},{"buffer":0,"byteOffset":9240,"byteLength":288,"target":34962,"byteStride":12},{"buffer":0,"byteOffset":9528,"byteLength":288,"target":34962,"byteStride":12},{"buffer":0,"byteOffset":9816,"byteLength":192,"target":34962,"byteStride":8},{"buffer":0,"byteOffset":10008,"byteLength":72,"target":34963},{"buffer":0,"byteOffset":10080,"byteLength":288,"target":34962,"byteStride":12},{"buffer":0,"byteOffset":10368,"byteLength":288,"target":34962,"byteStride":12},{"buffer":0,"byteOffset":10656,"byteLength":192,"target":34962,"byteStride":8},{"buffer":0,"byteOffset":10848,"byteLength":72,"target":34963},{"buffer":0,"byteOffset":10920,"byteLength":20},{"buffer":0,"byteOffset":10940,"byteLength":80},{"buffer":0,"byteOffset":11020,"byteLength":20},{"buffer":0,"byteOffset":11040,"byteLength":80},{"buffer":0,"byteOffset":11120,"byteLength":8},{"buffer":0,"byteOffset":11128,"byteLength":32},{"buffer":0,"byteOffset":11160,"byteLength":20},{"buffer":0,"byteOffset":11180,"byteLength":80},{"buffer":0,"byteOffset":11260,"byteLength":20},{"buffer":0,"byteOffset":11280,"byteLength":80},{"buffer":0,"byteOffset":11360,"byteLength":20},{"buffer":0,"byteOffset":11380,"byteLength":80}],"buffers":[{"byteLength":11460,"uri":"data:application/octet-stream;base64,"}],"accessors":[{"bufferView":0,"componentType":5126,"count":24,"max":[0.4375,0.5,0.4375],"min":[-0.0625,0,-0.0625],"type":"VEC3"},{"bufferView":1,"componentType":5126,"count":24,"max":[1,1,1],"min":[-1,-1,-1],"type":"VEC3"},{"bufferView":2,"componentType":5126,"count":24,"max":[0.375,0.25],"min":[0,0],"type":"VEC2"},{"bufferView":3,"componentType":5123,"count":36,"max":[23],"min":[0],"type":"SCALAR"},{"bufferView":4,"componentType":5126,"count":24,"max":[0.34375,0.4437499940395355,0.4375],"min":[-0.09375,0.0062500000931322575,-0.0625],"type":"VEC3"},{"bufferView":5,"componentType":5126,"count":24,"max":[1,1,1],"min":[-1,-1,-1],"type":"VEC3"},{"bufferView":6,"componentType":5126,"count":24,"max":[0.5,0.25],"min":[0,0],"type":"VEC2"},{"bufferView":7,"componentType":5123,"count":36,"max":[23],"min":[0],"type":"SCALAR"},{"bufferView":8,"componentType":5126,"count":24,"max":[0.25,0.39375001192092896,0.4375],"min":[-0.125,0.01875000074505806,-0.0625],"type":"VEC3"},{"bufferView":9,"componentType":5126,"count":24,"max":[1,1,1],"min":[-1,-1,-1],"type":"VEC3"},{"bufferView":10,"componentType":5126,"count":24,"max":[0.375,0.234375],"min":[0,0],"type":"VEC2"},{"bufferView":11,"componentType":5123,"count":36,"max":[23],"min":[0],"type":"SCALAR"},{"bufferView":12,"componentType":5126,"count":24,"max":[0.09375,0.04125000163912773,0.0625],"min":[-0.09375,0,-0.0625],"type":"VEC3"},{"bufferView":13,"componentType":5126,"count":24,"max":[1,1,1],"min":[-1,-1,-1],"type":"VEC3"},{"bufferView":14,"componentType":5126,"count":24,"max":[0.359375,0.234375],"min":[0.25,0],"type":"VEC2"},{"bufferView":15,"componentType":5123,"count":36,"max":[23],"min":[0],"type":"SCALAR"},{"bufferView":16,"componentType":5126,"count":24,"max":[0.1875,0.04125000163912773,0.0625],"min":[0,0,-0.0625],"type":"VEC3"},{"bufferView":17,"componentType":5126,"count":24,"max":[1,1,1],"min":[-1,-1,-1],"type":"VEC3"},{"bufferView":18,"componentType":5126,"count":24,"max":[0.375,0.2290624976158142],"min":[0.265625,0],"type":"VEC2"},{"bufferView":19,"componentType":5123,"count":36,"max":[23],"min":[0],"type":"SCALAR"},{"bufferView":20,"componentType":5126,"count":24,"max":[0.10312499850988388,0.04125000163912773,0.0625],"min":[-0.08437500149011612,0,-0.0625],"type":"VEC3"},{"bufferView":21,"componentType":5126,"count":24,"max":[1,1,1],"min":[-1,-1,-1],"type":"VEC3"},{"bufferView":22,"componentType":5126,"count":24,"max":[0.359375,0.046875],"min":[0.25,0],"type":"VEC2"},{"bufferView":23,"componentType":5123,"count":36,"max":[23],"min":[0],"type":"SCALAR"},{"bufferView":24,"componentType":5126,"count":24,"max":[0.10312499850988388,0.04125000163912773,0.0625],"min":[-0.08437500149011612,0,-0.0625],"type":"VEC3"},{"bufferView":25,"componentType":5126,"count":24,"max":[1,1,1],"min":[-1,-1,-1],"type":"VEC3"},{"bufferView":26,"componentType":5126,"count":24,"max":[0.375,0.0625],"min":[0.265625,0],"type":"VEC2"},{"bufferView":27,"componentType":5123,"count":36,"max":[23],"min":[0],"type":"SCALAR"},{"bufferView":28,"componentType":5126,"count":24,"max":[0.13750000298023224,0.2718749940395355,0.25],"min":[-0.11249999701976776,0.02187499962747097,-0.0625],"type":"VEC3"},{"bufferView":29,"componentType":5126,"count":24,"max":[1,1,1],"min":[-1,-1,-1],"type":"VEC3"},{"bufferView":30,"componentType":5126,"count":24,"max":[0.484375,0.25],"min":[0.078125,0.015625],"type":"VEC2"},{"bufferView":31,"componentType":5123,"count":36,"max":[23],"min":[0],"type":"SCALAR"},{"bufferView":32,"componentType":5126,"count":24,"max":[-0.03437500074505806,0.21875,0.1875],"min":[-0.15937499701976776,0.03125,-0.0625],"type":"VEC3"},{"bufferView":33,"componentType":5126,"count":24,"max":[1,1,1],"min":[-1,-1,-1],"type":"VEC3"},{"bufferView":34,"componentType":5126,"count":24,"max":[0.53125,0.21875],"min":[0.15625,0.015625],"type":"VEC2"},{"bufferView":35,"componentType":5123,"count":36,"max":[23],"min":[0],"type":"SCALAR"},{"bufferView":36,"componentType":5126,"count":24,"max":[-0.015625,0.125,0.0625],"min":[-0.078125,0,-0.0625],"type":"VEC3"},{"bufferView":37,"componentType":5126,"count":24,"max":[1,1,1],"min":[-1,-1,-1],"type":"VEC3"},{"bufferView":38,"componentType":5126,"count":24,"max":[0.484375,0.15625],"min":[0,0],"type":"VEC2"},{"bufferView":39,"componentType":5123,"count":18,"max":[11],"min":[0],"type":"SCALAR"},{"bufferView":40,"componentType":5123,"count":6,"max":[15],"min":[12],"type":"SCALAR"},{"bufferView":41,"componentType":5123,"count":12,"max":[23],"min":[16],"type":"SCALAR"},{"bufferView":42,"componentType":5126,"count":24,"max":[-0.015625,0.171875,0.0625],"min":[-0.078125,-0.015625,-0.0625],"type":"VEC3"},{"bufferView":43,"componentType":5126,"count":24,"max":[1,1,1],"min":[-1,-1,-1],"type":"VEC3"},{"bufferView":44,"componentType":5126,"count":24,"max":[0.453125,0.15625],"min":[0.15625,0.015625],"type":"VEC2"},{"bufferView":45,"componentType":5123,"count":36,"max":[23],"min":[0],"type":"SCALAR"},{"bufferView":46,"componentType":5126,"count":24,"max":[-0.015625,0.171875,0.0625],"min":[-0.078125,-0.015625,-0.0625],"type":"VEC3"},{"bufferView":47,"componentType":5126,"count":24,"max":[1,1,1],"min":[-1,-1,-1],"type":"VEC3"},{"bufferView":48,"componentType":5126,"count":24,"max":[0.484375,0.171875],"min":[0.15625,0.03125],"type":"VEC2"},{"bufferView":49,"componentType":5123,"count":36,"max":[23],"min":[0],"type":"SCALAR"},{"bufferView":50,"componentType":5126,"count":24,"max":[-0.015625,0.171875,0.0625],"min":[-0.078125,-0.015625,-0.0625],"type":"VEC3"},{"bufferView":51,"componentType":5126,"count":24,"max":[1,1,1],"min":[-1,-1,-1],"type":"VEC3"},{"bufferView":52,"componentType":5126,"count":24,"max":[0.453125,0.171875],"min":[0.203125,0.015625],"type":"VEC2"},{"bufferView":53,"componentType":5123,"count":36,"max":[23],"min":[0],"type":"SCALAR"},{"bufferView":54,"componentType":5126,"count":5,"max":[2],"min":[0],"type":"SCALAR"},{"bufferView":55,"componentType":5126,"count":5,"max":[0,0.02181488461792469,0,1],"min":[0,-0.02181488461792469,0,0.9997619986534119],"type":"VEC4"},{"bufferView":56,"componentType":5126,"count":5,"max":[2],"min":[0],"type":"SCALAR"},{"bufferView":57,"componentType":5126,"count":5,"max":[0,0.061048541218042374,0,1],"min":[0,-0.061048541218042374,0,0.9981347918510437],"type":"VEC4"},{"bufferView":58,"componentType":5126,"count":2,"max":[0.5],"min":[0],"type":"SCALAR"},{"bufferView":59,"componentType":5126,"count":2,"max":[0,0,0,1],"min":[0,0,0,1],"type":"VEC4"},{"bufferView":60,"componentType":5126,"count":5,"max":[2],"min":[0],"type":"SCALAR"},{"bufferView":61,"componentType":5126,"count":5,"max":[0,0,0.13052618503570557,1],"min":[0,0,-0.5,0.8660253882408142],"type":"VEC4"},{"bufferView":62,"componentType":5126,"count":5,"max":[2],"min":[0],"type":"SCALAR"},{"bufferView":63,"componentType":5126,"count":5,"max":[0,0,0.4226182699203491,1],"min":[0,0,-0.258819043636322,0.9063078165054321],"type":"VEC4"},{"bufferView":64,"componentType":5126,"count":5,"max":[2],"min":[0],"type":"SCALAR"},{"bufferView":65,"componentType":5126,"count":5,"max":[0,0.061048541218042374,0,1],"min":[0,-0.061048541218042374,0,0.9981347918510437],"type":"VEC4"}],"materials":[{"pbrMetallicRoughness":{"metallicFactor":0,"roughnessFactor":1,"baseColorTexture":{"index":0}},"alphaMode":"MASK","alphaCutoff":0.05,"doubleSided":true},{"pbrMetallicRoughness":{"metallicFactor":0,"roughnessFactor":1},"alphaMode":"MASK","alphaCutoff":0.05,"doubleSided":true}],"textures":[{"sampler":0,"source":0}],"samplers":[{"magFilter":9728,"minFilter":9728,"wrapS":33071,"wrapT":33071}],"images":[{"mimeType":"image/png","uri":"data:image/png;base64,"}],"meshes":[{"primitives":[{"mode":4,"attributes":{"POSITION":0,"NORMAL":1,"TEXCOORD_0":2},"indices":3,"material":0}]},{"primitives":[{"mode":4,"attributes":{"POSITION":4,"NORMAL":5,"TEXCOORD_0":6},"indices":7,"material":0}]},{"primitives":[{"mode":4,"attributes":{"POSITION":8,"NORMAL":9,"TEXCOORD_0":10},"indices":11,"material":0}]},{"primitives":[{"mode":4,"attributes":{"POSITION":12,"NORMAL":13,"TEXCOORD_0":14},"indices":15,"material":0}]},{"primitives":[{"mode":4,"attributes":{"POSITION":16,"NORMAL":17,"TEXCOORD_0":18},"indices":19,"material":0}]},{"primitives":[{"mode":4,"attributes":{"POSITION":20,"NORMAL":21,"TEXCOORD_0":22},"indices":23,"material":0}]},{"primitives":[{"mode":4,"attributes":{"POSITION":24,"NORMAL":25,"TEXCOORD_0":26},"indices":27,"material":0}]},{"primitives":[{"mode":4,"attributes":{"POSITION":28,"NORMAL":29,"TEXCOORD_0":30},"indices":31,"material":0}]},{"primitives":[{"mode":4,"attributes":{"POSITION":32,"NORMAL":33,"TEXCOORD_0":34},"indices":35,"material":0}]},{"primitives":[{"mode":4,"attributes":{"POSITION":36,"NORMAL":37,"TEXCOORD_0":38},"indices":39,"material":0},{"mode":4,"attributes":{"POSITION":36,"NORMAL":37,"TEXCOORD_0":38},"indices":40,"material":1},{"mode":4,"attributes":{"POSITION":36,"NORMAL":37,"TEXCOORD_0":38},"indices":41,"material":0}]},{"primitives":[{"mode":4,"attributes":{"POSITION":42,"NORMAL":43,"TEXCOORD_0":44},"indices":45,"material":0}]},{"primitives":[{"mode":4,"attributes":{"POSITION":46,"NORMAL":47,"TEXCOORD_0":48},"indices":49,"material":0}]},{"primitives":[{"mode":4,"attributes":{"POSITION":50,"NORMAL":51,"TEXCOORD_0":52},"indices":53,"material":0}]}],"animations":[{"name":"swim","samplers":[{"input":54,"output":55,"interpolation":"LINEAR"},{"input":56,"output":57,"interpolation":"LINEAR"},{"input":58,"output":59,"interpolation":"LINEAR"},{"input":60,"output":61,"interpolation":"LINEAR"},{"input":62,"output":63,"interpolation":"LINEAR"},{"input":64,"output":65,"interpolation":"LINEAR"}],"channels":[{"sampler":0,"target":{"node":4,"path":"rotation"}},{"sampler":1,"target":{"node":15,"path":"rotation"}},{"sampler":2,"target":{"node":12,"path":"rotation"}},{"sampler":3,"target":{"node":7,"path":"rotation"}},{"sampler":4,"target":{"node":11,"path":"rotation"}},{"sampler":5,"target":{"node":20,"path":"rotation"}}]}]}