{"asset":{"version":"2.0","generator":"Blockbench 4.12.1 glTF exporter"},"scenes":[{"nodes":[17],"name":"blockbench_export"}],"scene":0,"nodes":[{"translation":[0,0.25,-0.4375],"name":"cube","mesh":0},{"translation":[0.0625,0,0.25],"name":"cube","mesh":1},{"translation":[0.0625,0,0.5],"name":"cube","mesh":2},{"translation":[0,-0.1875,0.125],"name":"cube","mesh":3},{"translation":[0,-0.25,0.125],"name":"cube","mesh":4},{"translation":[0,0.4375,-0.375],"name":"Body","children":[1,2,3,4]},{"name":"cube","mesh":5},{"translation":[0,-0.0625,0],"name":"cube","mesh":6},{"rotation":[0,0,-0.13052619222005157,0.9914448613738104],"translation":[0,0.1875,-0.1875],"name":"L Fin","children":[6,7]},{"translation":[0,0.0625,0],"name":"cube","mesh":7},{"name":"cube","mesh":8},{"rotation":[0,0,0.10886687485196457,0.9940563382223196],"translation":[0.25,0.125,-0.25],"name":"R fin","children":[9,10]},{"translation":[0.0625,-0.0625,0.3125],"name":"cube","mesh":9},{"translation":[0.0625,-0.125,0.4375],"name":"cube","mesh":10},{"translation":[0.0625,0.0625,0.5],"name":"cube","mesh":11},{"translation":[0.0625,-0.125,0.5],"name":"cube","mesh":12},{"translation":[0,0.3125,-0.0625],"name":"Tail","children":[12,13,14,15]},{"children":[0,5,8,11,16]}],"bufferViews":[{"buffer":0,"byteOffset":0,"byteLength":288,"target":34962,"byteStride":12},{"buffer":0,"byteOffset":288,"byteLength":288,"target":34962,"byteStride":12},{"buffer":0,"byteOffset":576,"byteLength":192,"target":34962,"byteStride":8},{"buffer":0,"byteOffset":768,"byteLength":72,"target":34963},{"buffer":0,"byteOffset":840,"byteLength":288,"target":34962,"byteStride":12},{"buffer":0,"byteOffset":1128,"byteLength":288,"target":34962,"byteStride":12},{"buffer":0,"byteOffset":1416,"byteLength":192,"target":34962,"byteStride":8},{"buffer":0,"byteOffset":1608,"byteLength":24,"target":34963},{"buffer":0,"byteOffset":1632,"byteLength":12,"target":34963},{"buffer":0,"byteOffset":1644,"byteLength":12,"target":34963},{"buffer":0,"byteOffset":1656,"byteLength":12,"target":34963},{"buffer":0,"byteOffset":1668,"byteLength":12,"target":34963},{"buffer":0,"byteOffset":1680,"byteLength":288,"target":34962,"byteStride":12},{"buffer":0,"byteOffset":1968,"byteLength":288,"target":34962,"byteStride":12},{"buffer":0,"byteOffset":2256,"byteLength":192,"target":34962,"byteStride":8},{"buffer":0,"byteOffset":2448,"byteLength":24,"target":34963},{"buffer":0,"byteOffset":2472,"byteLength":12,"target":34963},{"buffer":0,"byteOffset":2484,"byteLength":12,"target":34963},{"buffer":0,"byteOffset":2496,"byteLength":12,"target":34963},{"buffer":0,"byteOffset":2508,"byteLength":12,"target":34963},{"buffer":0,"byteOffset":2520,"byteLength":288,"target":34962,"byteStride":12},{"buffer":0,"byteOffset":2808,"byteLength":288,"target":34962,"byteStride":12},{"buffer":0,"byteOffset":3096,"byteLength":192,"target":34962,"byteStride":8},{"buffer":0,"byteOffset":3288,"byteLength":72,"target":34963},{"buffer":0,"byteOffset":3360,"byteLength":288,"target":34962,"byteStride":12},{"buffer":0,"byteOffset":3648,"byteLength":288,"target":34962,"byteStride":12},{"buffer":0,"byteOffset":3936,"byteLength":192,"target":34962,"byteStride":8},{"buffer":0,"byteOffset":4128,"byteLength":72,"target":34963},{"buffer":0,"byteOffset":4200,"byteLength":288,"target":34962,"byteStride":12},{"buffer":0,"byteOffset":4488,"byteLength":288,"target":34962,"byteStride":12},{"buffer":0,"byteOffset":4776,"byteLength":192,"target":34962,"byteStride":8},{"buffer":0,"byteOffset":4968,"byteLength":24,"target":34963},{"buffer":0,"byteOffset":4992,"byteLength":12,"target":34963},{"buffer":0,"byteOffset":5004,"byteLength":12,"target":34963},{"buffer":0,"byteOffset":5016,"byteLength":12,"target":34963},{"buffer":0,"byteOffset":5028,"byteLength":12,"target":34963},{"buffer":0,"byteOffset":5040,"byteLength":288,"target":34962,"byteStride":12},{"buffer":0,"byteOffset":5328,"byteLength":288,"target":34962,"byteStride":12},{"buffer":0,"byteOffset":5616,"byteLength":192,"target":34962,"byteStride":8},{"buffer":0,"byteOffset":5808,"byteLength":24,"target":34963},{"buffer":0,"byteOffset":5832,"byteLength":12,"target":34963},{"buffer":0,"byteOffset":5844,"byteLength":12,"target":34963},{"buffer":0,"byteOffset":5856,"byteLength":12,"target":34963},{"buffer":0,"byteOffset":5868,"byteLength":12,"target":34963},{"buffer":0,"byteOffset":5880,"byteLength":288,"target":34962,"byteStride":12},{"buffer":0,"byteOffset":6168,"byteLength":288,"target":34962,"byteStride":12},{"buffer":0,"byteOffset":6456,"byteLength":192,"target":34962,"byteStride":8},{"buffer":0,"byteOffset":6648,"byteLength":24,"target":34963},{"buffer":0,"byteOffset":6672,"byteLength":12,"target":34963},{"buffer":0,"byteOffset":6684,"byteLength":12,"target":34963},{"buffer":0,"byteOffset":6696,"byteLength":12,"target":34963},{"buffer":0,"byteOffset":6708,"byteLength":12,"target":34963},{"buffer":0,"byteOffset":6720,"byteLength":288,"target":34962,"byteStride":12},{"buffer":0,"byteOffset":7008,"byteLength":288,"target":34962,"byteStride":12},{"buffer":0,"byteOffset":7296,"byteLength":192,"target":34962,"byteStride":8},{"buffer":0,"byteOffset":7488,"byteLength":24,"target":34963},{"buffer":0,"byteOffset":7512,"byteLength":12,"target":34963},{"buffer":0,"byteOffset":7524,"byteLength":12,"target":34963},{"buffer":0,"byteOffset":7536,"byteLength":12,"target":34963},{"buffer":0,"byteOffset":7548,"byteLength":12,"target":34963},{"buffer":0,"byteOffset":7560,"byteLength":288,"target":34962,"byteStride":12},{"buffer":0,"byteOffset":7848,"byteLength":288,"target":34962,"byteStride":12},{"buffer":0,"byteOffset":8136,"byteLength":192,"target":34962,"byteStride":8},{"buffer":0,"byteOffset":8328,"byteLength":24,"target":34963},{"buffer":0,"byteOffset":8352,"byteLength":12,"target":34963},{"buffer":0,"byteOffset":8364,"byteLength":12,"target":34963},{"buffer":0,"byteOffset":8376,"byteLength":12,"target":34963},{"buffer":0,"byteOffset":8388,"byteLength":12,"target":34963},{"buffer":0,"byteOffset":8400,"byteLength":288,"target":34962,"byteStride":12},{"buffer":0,"byteOffset":8688,"byteLength":288,"target":34962,"byteStride":12},{"buffer":0,"byteOffset":8976,"byteLength":192,"target":34962,"byteStride":8},{"buffer":0,"byteOffset":9168,"byteLength":24,"target":34963},{"buffer":0,"byteOffset":9192,"byteLength":12,"target":34963},{"buffer":0,"byteOffset":9204,"byteLength":12,"target":34963},{"buffer":0,"byteOffset":9216,"byteLength":12,"target":34963},{"buffer":0,"byteOffset":9228,"byteLength":12,"target":34963},{"buffer":0,"byteOffset":9240,"byteLength":288,"target":34962,"byteStride":12},{"buffer":0,"byteOffset":9528,"byteLength":288,"target":34962,"byteStride":12},{"buffer":0,"byteOffset":9816,"byteLength":192,"target":34962,"byteStride":8},{"buffer":0,"byteOffset":10008,"byteLength":24,"target":34963},{"buffer":0,"byteOffset":10032,"byteLength":12,"target":34963},{"buffer":0,"byteOffset":10044,"byteLength":12,"target":34963},{"buffer":0,"byteOffset":10056,"byteLength":12,"target":34963},{"buffer":0,"byteOffset":10068,"byteLength":12,"target":34963},{"buffer":0,"byteOffset":10080,"byteLength":288,"target":34962,"byteStride":12},{"buffer":0,"byteOffset":10368,"byteLength":288,"target":34962,"byteStride":12},{"buffer":0,"byteOffset":10656,"byteLength":192,"target":34962,"byteStride":8},{"buffer":0,"byteOffset":10848,"byteLength":24,"target":34963},{"buffer":0,"byteOffset":10872,"byteLength":12,"target":34963},{"buffer":0,"byteOffset":10884,"byteLength":12,"target":34963},{"buffer":0,"byteOffset":10896,"byteLength":12,"target":34963},{"buffer":0,"byteOffset":10908,"byteLength":12,"target":34963},{"buffer":0,"byteOffset":10920,"byteLength":20},{"buffer":0,"byteOffset":10940,"byteLength":80},{"buffer":0,"byteOffset":11020,"byteLength":20},{"buffer":0,"byteOffset":11040,"byteLength":80}],"buffers":[{"byteLength":11120,"uri":"data:application/octet-stream;base64,"}],"accessors":[{"bufferView":0,"componentType":5126,"count":24,"max":[0.0625,0.171875,0.125],"min":[-0.0625,0,-0.0625],"type":"VEC3"},{"bufferView":1,"componentType":5126,"count":24,"max":[1,1,1],"min":[-1,-1,-1],"type":"VEC3"},{"bufferView":2,"componentType":5126,"count":24,"max":[0.59375,0.1875],"min":[0.0625,0],"type":"VEC2"},{"bufferView":3,"componentType":5123,"count":36,"max":[23],"min":[0],"type":"SCALAR"},{"bufferView":4,"componentType":5126,"count":24,"max":[-0.062437500804662704,0.0625,0.0625],"min":[-0.0625,0,-0.0625],"type":"VEC3"},{"bufferView":5,"componentType":5126,"count":24,"max":[1,1,1],"min":[-1,-1,-1],"type":"VEC3"},{"bufferView":6,"componentType":5126,"count":24,"max":[0.65625,0.53125],"min":[0,0],"type":"VEC2"},{"bufferView":7,"componentType":5123,"count":12,"max":[7],"min":[0],"type":"SCALAR"},{"bufferView":8,"componentType":5123,"count":6,"max":[11],"min":[8],"type":"SCALAR"},{"bufferView":9,"componentType":5123,"count":6,"max":[15],"min":[12],"type":"SCALAR"},{"bufferView":10,"componentType":5123,"count":6,"max":[19],"min":[16],"type":"SCALAR"},{"bufferView":11,"componentType":5123,"count":6,"max":[23],"min":[20],"type":"SCALAR"},{"bufferView":12,"componentType":5126,"count":24,"max":[-0.062437500804662704,0.0625,0.0625],"min":[-0.0625,0,-0.0625],"type":"VEC3"},{"bufferView":13,"componentType":5126,"count":24,"max":[1,1,1],"min":[-1,-1,-1],"type":"VEC3"},{"bufferView":14,"componentType":5126,"count":24,"max":[0.65625,0.53125],"min":[0,0],"type":"VEC2"},{"bufferView":15,"componentType":5123,"count":12,"max":[7],"min":[0],"type":"SCALAR"},{"bufferView":16,"componentType":5123,"count":6,"max":[11],"min":[8],"type":"SCALAR"},{"bufferView":17,"componentType":5123,"count":6,"max":[15],"min":[12],"type":"SCALAR"},{"bufferView":18,"componentType":5123,"count":6,"max":[19],"min":[16],"type":"SCALAR"},{"bufferView":19,"componentType":5123,"count":6,"max":[23],"min":[20],"type":"SCALAR"},{"bufferView":20,"componentType":5126,"count":24,"max":[0.0625,0.1875,0.5625],"min":[-0.0625,0.03125,-0.0625],"type":"VEC3"},{"bufferView":21,"componentType":5126,"count":24,"max":[1,1,1],"min":[-1,-1,-1],"type":"VEC3"},{"bufferView":22,"componentType":5126,"count":24,"max":[0.40625,0.34375],"min":[0,0],"type":"VEC2"},{"bufferView":23,"componentType":5123,"count":36,"max":[23],"min":[0],"type":"SCALAR"},{"bufferView":24,"componentType":5126,"count":24,"max":[0.0625,0.09375,0.5625],"min":[-0.0625,0.0625,-0.0625],"type":"VEC3"},{"bufferView":25,"componentType":5126,"count":24,"max":[1,1,1],"min":[-1,-1,-1],"type":"VEC3"},{"bufferView":26,"componentType":5126,"count":24,"max":[0.5625,0.28125],"min":[0,0],"type":"VEC2"},{"bufferView":27,"componentType":5123,"count":36,"max":[23],"min":[0],"type":"SCALAR"},{"bufferView":28,"componentType":5126,"count":24,"max":[-0.09993749856948853,0.0625,0.0625],"min":[-0.10000000149011612,0,-0.0625],"type":"VEC3"},{"bufferView":29,"componentType":5126,"count":24,"max":[1,1,1],"min":[-1,-1,-1],"type":"VEC3"},{"bufferView":30,"componentType":5126,"count":24,"max":[0.59375,0.53125],"min":[0,0],"type":"VEC2"},{"bufferView":31,"componentType":5123,"count":12,"max":[7],"min":[0],"type":"SCALAR"},{"bufferView":32,"componentType":5123,"count":6,"max":[11],"min":[8],"type":"SCALAR"},{"bufferView":33,"componentType":5123,"count":6,"max":[15],"min":[12],"type":"SCALAR"},{"bufferView":34,"componentType":5123,"count":6,"max":[19],"min":[16],"type":"SCALAR"},{"bufferView":35,"componentType":5123,"count":6,"max":[23],"min":[20],"type":"SCALAR"},{"bufferView":36,"componentType":5126,"count":24,"max":[-0.09993749856948853,0.0625,0],"min":[-0.10000000149011612,0,-0.0625],"type":"VEC3"},{"bufferView":37,"componentType":5126,"count":24,"max":[1,1,1],"min":[-1,-1,-1],"type":"VEC3"},{"bufferView":38,"componentType":5126,"count":24,"max":[0.5625,0.5625],"min":[0,0],"type":"VEC2"},{"bufferView":39,"componentType":5123,"count":12,"max":[7],"min":[0],"type":"SCALAR"},{"bufferView":40,"componentType":5123,"count":6,"max":[11],"min":[8],"type":"SCALAR"},{"bufferView":41,"componentType":5123,"count":6,"max":[15],"min":[12],"type":"SCALAR"},{"bufferView":42,"componentType":5123,"count":6,"max":[19],"min":[16],"type":"SCALAR"},{"bufferView":43,"componentType":5123,"count":6,"max":[23],"min":[20],"type":"SCALAR"},{"bufferView":44,"componentType":5126,"count":24,"max":[-0.1249374970793724,0.125,0.0625],"min":[-0.125,0.0625,-0.0625],"type":"VEC3"},{"bufferView":45,"componentType":5126,"count":24,"max":[1,1,1],"min":[-1,-1,-1],"type":"VEC3"},{"bufferView":46,"componentType":5126,"count":24,"max":[0.59375,0.53125],"min":[0,0],"type":"VEC2"},{"bufferView":47,"componentType":5123,"count":12,"max":[7],"min":[0],"type":"SCALAR"},{"bufferView":48,"componentType":5123,"count":6,"max":[11],"min":[8],"type":"SCALAR"},{"bufferView":49,"componentType":5123,"count":6,"max":[15],"min":[12],"type":"SCALAR"},{"bufferView":50,"componentType":5123,"count":6,"max":[19],"min":[16],"type":"SCALAR"},{"bufferView":51,"componentType":5123,"count":6,"max":[23],"min":[20],"type":"SCALAR"},{"bufferView":52,"componentType":5126,"count":24,"max":[-0.1249374970793724,0.125,0],"min":[-0.125,0.0625,-0.0625],"type":"VEC3"},{"bufferView":53,"componentType":5126,"count":24,"max":[1,1,1],"min":[-1,-1,-1],"type":"VEC3"},{"bufferView":54,"componentType":5126,"count":24,"max":[0.5625,0.5625],"min":[0,0],"type":"VEC2"},{"bufferView":55,"componentType":5123,"count":12,"max":[7],"min":[0],"type":"SCALAR"},{"bufferView":56,"componentType":5123,"count":6,"max":[11],"min":[8],"type":"SCALAR"},{"bufferView":57,"componentType":5123,"count":6,"max":[15],"min":[12],"type":"SCALAR"},{"bufferView":58,"componentType":5123,"count":6,"max":[19],"min":[16],"type":"SCALAR"},{"bufferView":59,"componentType":5123,"count":6,"max":[23],"min":[20],"type":"SCALAR"},{"bufferView":60,"componentType":5126,"count":24,"max":[-0.062437500804662704,0.14374999701976776,0.0625],"min":[-0.0625,0.01875000074505806,-0.0625],"type":"VEC3"},{"bufferView":61,"componentType":5126,"count":24,"max":[1,1,1],"min":[-1,-1,-1],"type":"VEC3"},{"bufferView":62,"componentType":5126,"count":24,"max":[0.875,0.3125],"min":[0,0],"type":"VEC2"},{"bufferView":63,"componentType":5123,"count":12,"max":[7],"min":[0],"type":"SCALAR"},{"bufferView":64,"componentType":5123,"count":6,"max":[11],"min":[8],"type":"SCALAR"},{"bufferView":65,"componentType":5123,"count":6,"max":[15],"min":[12],"type":"SCALAR"},{"bufferView":66,"componentType":5123,"count":6,"max":[19],"min":[16],"type":"SCALAR"},{"bufferView":67,"componentType":5123,"count":6,"max":[23],"min":[20],"type":"SCALAR"},{"bufferView":68,"componentType":5126,"count":24,"max":[-0.062437500804662704,0.26875001192092896,0],"min":[-0.0625,0.01875000074505806,-0.0625],"type":"VEC3"},{"bufferView":69,"componentType":5126,"count":24,"max":[1,1,1],"min":[-1,-1,-1],"type":"VEC3"},{"bufferView":70,"componentType":5126,"count":24,"max":[0.875,0.3125],"min":[0,0],"type":"VEC2"},{"bufferView":71,"componentType":5123,"count":12,"max":[7],"min":[0],"type":"SCALAR"},{"bufferView":72,"componentType":5123,"count":6,"max":[11],"min":[8],"type":"SCALAR"},{"bufferView":73,"componentType":5123,"count":6,"max":[15],"min":[12],"type":"SCALAR"},{"bufferView":74,"componentType":5123,"count":6,"max":[19],"min":[16],"type":"SCALAR"},{"bufferView":75,"componentType":5123,"count":6,"max":[23],"min":[20],"type":"SCALAR"},{"bufferView":76,"componentType":5126,"count":24,"max":[-0.062437500804662704,0.08124999701976776,0],"min":[-0.0625,0.01875000074505806,-0.0625],"type":"VEC3"},{"bufferView":77,"componentType":5126,"count":24,"max":[1,1,1],"min":[-1,-1,-1],"type":"VEC3"},{"bufferView":78,"componentType":5126,"count":24,"max":[0.90625,0.28125],"min":[0,0],"type":"VEC2"},{"bufferView":79,"componentType":5123,"count":12,"max":[7],"min":[0],"type":"SCALAR"},{"bufferView":80,"componentType":5123,"count":6,"max":[11],"min":[8],"type":"SCALAR"},{"bufferView":81,"componentType":5123,"count":6,"max":[15],"min":[12],"type":"SCALAR"},{"bufferView":82,"componentType":5123,"count":6,"max":[19],"min":[16],"type":"SCALAR"},{"bufferView":83,"componentType":5123,"count":6,"max":[23],"min":[20],"type":"SCALAR"},{"bufferView":84,"componentType":5126,"count":24,"max":[-0.062437500804662704,0.08124999701976776,0],"min":[-0.0625,0.01875000074505806,-0.0625],"type":"VEC3"},{"bufferView":85,"componentType":5126,"count":24,"max":[1,1,1],"min":[-1,-1,-1],"type":"VEC3"},{"bufferView":86,"componentType":5126,"count":24,"max":[0.90625,0.3125],"min":[0,0],"type":"VEC2"},{"bufferView":87,"componentType":5123,"count":12,"max":[7],"min":[0],"type":"SCALAR"},{"bufferView":88,"componentType":5123,"count":6,"max":[11],"min":[8],"type":"SCALAR"},{"bufferView":89,"componentType":5123,"count":6,"max":[15],"min":[12],"type":"SCALAR"},{"bufferView":90,"componentType":5123,"count":6,"max":[19],"min":[16],"type":"SCALAR"},{"bufferView":91,"componentType":5123,"count":6,"max":[23],"min":[20],"type":"SCALAR"},{"bufferView":92,"componentType":5126,"count":5,"max":[2],"min":[0],"type":"SCALAR"},{"bufferView":93,"componentType":5126,"count":5,"max":[0,0.08715574443340302,0,1],"min":[0,-0.08715574443340302,0,0.9961947202682495],"type":"VEC4"},{"bufferView":94,"componentType":5126,"count":5,"max":[2],"min":[0],"type":"SCALAR"},{"bufferView":95,"componentType":5126,"count":5,"max":[0,0.02181488461792469,0,1],"min":[0,-0.02181488461792469,0,0.9997619986534119],"type":"VEC4"}],"materials":[{"pbrMetallicRoughness":{"metallicFactor":0,"roughnessFactor":1,"baseColorTexture":{"index":0}},"alphaMode":"MASK","alphaCutoff":0.05,"doubleSided":true},{"pbrMetallicRoughness":{"metallicFactor":0,"roughnessFactor":1},"alphaMode":"MASK","alphaCutoff":0.05,"doubleSided":true},{"pbrMetallicRoughness":{"metallicFactor":0,"roughnessFactor":1},"alphaMode":"MASK","alphaCutoff":0.05,"doubleSided":true}],"textures":[{"sampler":0,"source":0,"name":"salmon_texture.png"}],"samplers":[{"magFilter":9728,"minFilter":9728,"wrapS":33071,"wrapT":33071}],"images":[{"mimeType":"image/png","uri":"data:image/png;base64,"}],"meshes":[{"primitives":[{"mode":4,"attributes":{"POSITION":0,"NORMAL":1,"TEXCOORD_0":2},"indices":3,"material":0}]},{"primitives":[{"mode":4,"attributes":{"POSITION":4,"NORMAL":5,"TEXCOORD_0":6},"indices":7,"material":0},{"mode":4,"attributes":{"POSITION":4,"NORMAL":5,"TEXCOORD_0":6},"indices":8,"material":1},{"mode":4,"attributes":{"POSITION":4,"NORMAL":5,"TEXCOORD_0":6},"indices":9,"material":1},{"mode":4,"attributes":{"POSITION":4,"NORMAL":5,"TEXCOORD_0":6},"indices":10,"material":1},{"mode":4,"attributes":{"POSITION":4,"NORMAL":5,"TEXCOORD_0":6},"indices":11,"material":1}]},{"primitives":[{"mode":4,"attributes":{"POSITION":12,"NORMAL":13,"TEXCOORD_0":14},"indices":15,"material":0},{"mode":4,"attributes":{"POSITION":12,"NORMAL":13,"TEXCOORD_0":14},"indices":16,"material":1},{"mode":4,"attributes":{"POSITION":12,"NORMAL":13,"TEXCOORD_0":14},"indices":17,"material":1},{"mode":4,"attributes":{"POSITION":12,"NORMAL":13,"TEXCOORD_0":14},"indices":18,"material":1},{"mode":4,"attributes":{"POSITION":12,"NORMAL":13,"TEXCOORD_0":14},"indices":19,"material":1}]},{"primitives":[{"mode":4,"attributes":{"POSITION":20,"NORMAL":21,"TEXCOORD_0":22},"indices":23,"material":0}]},{"primitives":[{"mode":4,"attributes":{"POSITION":24,"NORMAL":25,"TEXCOORD_0":26},"indices":27,"material":0}]},{"primitives":[{"mode":4,"attributes":{"POSITION":28,"NORMAL":29,"TEXCOORD_0":30},"indices":31,"material":0},{"mode":4,"attributes":{"POSITION":28,"NORMAL":29,"TEXCOORD_0":30},"indices":32,"material":2},{"mode":4,"attributes":{"POSITION":28,"NORMAL":29,"TEXCOORD_0":30},"indices":33,"material":2},{"mode":4,"attributes":{"POSITION":28,"NORMAL":29,"TEXCOORD_0":30},"indices":34,"material":2},{"mode":4,"attributes":{"POSITION":28,"NORMAL":29,"TEXCOORD_0":30},"indices":35,"material":2}]},{"primitives":[{"mode":4,"attributes":{"POSITION":36,"NORMAL":37,"TEXCOORD_0":38},"indices":39,"material":0},{"mode":4,"attributes":{"POSITION":36,"NORMAL":37,"TEXCOORD_0":38},"indices":40,"material":2},{"mode":4,"attributes":{"POSITION":36,"NORMAL":37,"TEXCOORD_0":38},"indices":41,"material":2},{"mode":4,"attributes":{"POSITION":36,"NORMAL":37,"TEXCOORD_0":38},"indices":42,"material":2},{"mode":4,"attributes":{"POSITION":36,"NORMAL":37,"TEXCOORD_0":38},"indices":43,"material":2}]},{"primitives":[{"mode":4,"attributes":{"POSITION":44,"NORMAL":45,"TEXCOORD_0":46},"indices":47,"material":0},{"mode":4,"attributes":{"POSITION":44,"NORMAL":45,"TEXCOORD_0":46},"indices":48,"material":1},{"mode":4,"attributes":{"POSITION":44,"NORMAL":45,"TEXCOORD_0":46},"indices":49,"material":1},{"mode":4,"attributes":{"POSITION":44,"NORMAL":45,"TEXCOORD_0":46},"indices":50,"material":1},{"mode":4,"attributes":{"POSITION":44,"NORMAL":45,"TEXCOORD_0":46},"indices":51,"material":1}]},{"primitives":[{"mode":4,"attributes":{"POSITION":52,"NORMAL":53,"TEXCOORD_0":54},"indices":55,"material":0},{"mode":4,"attributes":{"POSITION":52,"NORMAL":53,"TEXCOORD_0":54},"indices":56,"material":1},{"mode":4,"attributes":{"POSITION":52,"NORMAL":53,"TEXCOORD_0":54},"indices":57,"material":1},{"mode":4,"attributes":{"POSITION":52,"NORMAL":53,"TEXCOORD_0":54},"indices":58,"material":1},{"mode":4,"attributes":{"POSITION":52,"NORMAL":53,"TEXCOORD_0":54},"indices":59,"material":1}]},{"primitives":[{"mode":4,"attributes":{"POSITION":60,"NORMAL":61,"TEXCOORD_0":62},"indices":63,"material":0},{"mode":4,"attributes":{"POSITION":60,"NORMAL":61,"TEXCOORD_0":62},"indices":64,"material":1},{"mode":4,"attributes":{"POSITION":60,"NORMAL":61,"TEXCOORD_0":62},"indices":65,"material":1},{"mode":4,"attributes":{"POSITION":60,"NORMAL":61,"TEXCOORD_0":62},"indices":66,"material":1},{"mode":4,"attributes":{"POSITION":60,"NORMAL":61,"TEXCOORD_0":62},"indices":67,"material":1}]},{"primitives":[{"mode":4,"attributes":{"POSITION":68,"NORMAL":69,"TEXCOORD_0":70},"indices":71,"material":0},{"mode":4,"attributes":{"POSITION":68,"NORMAL":69,"TEXCOORD_0":70},"indices":72,"material":1},{"mode":4,"attributes":{"POSITION":68,"NORMAL":69,"TEXCOORD_0":70},"indices":73,"material":1},{"mode":4,"attributes":{"POSITION":68,"NORMAL":69,"TEXCOORD_0":70},"indices":74,"material":1},{"mode":4,"attributes":{"POSITION":68,"NORMAL":69,"TEXCOORD_0":70},"indices":75,"material":1}]},{"primitives":[{"mode":4,"attributes":{"POSITION":76,"NORMAL":77,"TEXCOORD_0":78},"indices":79,"material":0},{"mode":4,"attributes":{"POSITION":76,"NORMAL":77,"TEXCOORD_0":78},"indices":80,"material":1},{"mode":4,"attributes":{"POSITION":76,"NORMAL":77,"TEXCOORD_0":78},"indices":81,"material":1},{"mode":4,"attributes":{"POSITION":76,"NORMAL":77,"TEXCOORD_0":78},"indices":82,"material":1},{"mode":4,"attributes":{"POSITION":76,"NORMAL":77,"TEXCOORD_0":78},"indices":83,"material":1}]},{"primitives":[{"mode":4,"attributes":{"POSITION":84,"NORMAL":85,"TEXCOORD_0":86},"indices":87,"material":0},{"mode":4,"attributes":{"POSITION":84,"NORMAL":85,"TEXCOORD_0":86},"indices":88,"material":1},{"mode":4,"attributes":{"POSITION":84,"NORMAL":85,"TEXCOORD_0":86},"indices":89,"material":1},{"mode":4,"attributes":{"POSITION":84,"NORMAL":85,"TEXCOORD_0":86},"indices":90,"material":1},{"mode":4,"attributes":{"POSITION":84,"NORMAL":85,"TEXCOORD_0":86},"indices":91,"material":1}]}],"animations":[{"name":"swim","samplers":[{"input":92,"output":93,"interpolation":"LINEAR"},{"input":94,"output":95,"interpolation":"LINEAR"}],"channels":[{"sampler":0,"target":{"node":16,"path":"rotation"}},{"sampler":1,"target":{"node":5,"path":"rotation"}}]}]}