{"asset":{"version":"2.0","generator":"Blockbench 4.12.1 glTF exporter"},"scenes":[{"nodes":[17],"name":"blockbench_export"}],"scene":0,"nodes":[{"translation":[0,0,0.5625],"name":"Tail Inner","mesh":0},{"translation":[-0.0625,-0.0625,0.3125],"name":"Butt","mesh":1},{"translation":[-0.1875,-0.1875,-0.1875],"name":"Back Body","mesh":2},{"translation":[0.0625,-0.3125,0.75],"name":"Tail Outer","mesh":3},{"translation":[0,0.625,0.625],"name":"Tail","children":[0,1,2,3]},{"translation":[-0.25,0.375,-0.625],"name":"Body","mesh":4},{"translation":[0.0625,0.875,-0.3125],"name":"Dorsal Fin","mesh":5},{"translation":[0.0625,0.0625,0.125],"name":"Bottom Fin","mesh":6},{"name":"Body","children":[5,6,7]},{"rotation":[0.17364817766693033,0,0,0.984807753012208],"translation":[0,-0.125,0],"name":"Right Fin","mesh":7},{"translation":[0.375,0.5,-0.5],"name":"Right Fin","children":[9]},{"rotation":[0.17364817766693033,0,0,0.984807753012208],"translation":[0.0625,-0.125,-0.0625],"name":"Left Fin","mesh":8},{"translation":[-0.375,0.5,-0.4375],"name":"Left Fin","children":[11]},{"translation":[0.125,-0.0625,-1.375],"name":"Sword","mesh":9},{"translation":[0,-0.1875,-0.375],"name":"Nose","mesh":10},{"translation":[-0.125,-0.3125,-0.125],"name":"Face","mesh":11},{"translation":[-0.0625,0.75,-1],"name":"Head","children":[13,14,15]},{"children":[4,8,10,12,16]}],"bufferViews":[{"buffer":0,"byteOffset":0,"byteLength":288,"target":34962,"byteStride":12},{"buffer":0,"byteOffset":288,"byteLength":288,"target":34962,"byteStride":12},{"buffer":0,"byteOffset":576,"byteLength":192,"target":34962,"byteStride":8},{"buffer":0,"byteOffset":768,"byteLength":72,"target":34963},{"buffer":0,"byteOffset":840,"byteLength":288,"target":34962,"byteStride":12},{"buffer":0,"byteOffset":1128,"byteLength":288,"target":34962,"byteStride":12},{"buffer":0,"byteOffset":1416,"byteLength":192,"target":34962,"byteStride":8},{"buffer":0,"byteOffset":1608,"byteLength":72,"target":34963},{"buffer":0,"byteOffset":1680,"byteLength":288,"target":34962,"byteStride":12},{"buffer":0,"byteOffset":1968,"byteLength":288,"target":34962,"byteStride":12},{"buffer":0,"byteOffset":2256,"byteLength":192,"target":34962,"byteStride":8},{"buffer":0,"byteOffset":2448,"byteLength":72,"target":34963},{"buffer":0,"byteOffset":2520,"byteLength":288,"target":34962,"byteStride":12},{"buffer":0,"byteOffset":2808,"byteLength":288,"target":34962,"byteStride":12},{"buffer":0,"byteOffset":3096,"byteLength":192,"target":34962,"byteStride":8},{"buffer":0,"byteOffset":3288,"byteLength":24,"target":34963},{"buffer":0,"byteOffset":3312,"byteLength":12,"target":34963},{"buffer":0,"byteOffset":3324,"byteLength":12,"target":34963},{"buffer":0,"byteOffset":3336,"byteLength":12,"target":34963},{"buffer":0,"byteOffset":3348,"byteLength":12,"target":34963},{"buffer":0,"byteOffset":3360,"byteLength":288,"target":34962,"byteStride":12},{"buffer":0,"byteOffset":3648,"byteLength":288,"target":34962,"byteStride":12},{"buffer":0,"byteOffset":3936,"byteLength":192,"target":34962,"byteStride":8},{"buffer":0,"byteOffset":4128,"byteLength":72,"target":34963},{"buffer":0,"byteOffset":4200,"byteLength":288,"target":34962,"byteStride":12},{"buffer":0,"byteOffset":4488,"byteLength":288,"target":34962,"byteStride":12},{"buffer":0,"byteOffset":4776,"byteLength":192,"target":34962,"byteStride":8},{"buffer":0,"byteOffset":4968,"byteLength":24,"target":34963},{"buffer":0,"byteOffset":4992,"byteLength":12,"target":34963},{"buffer":0,"byteOffset":5004,"byteLength":12,"target":34963},{"buffer":0,"byteOffset":5016,"byteLength":12,"target":34963},{"buffer":0,"byteOffset":5028,"byteLength":12,"target":34963},{"buffer":0,"byteOffset":5040,"byteLength":288,"target":34962,"byteStride":12},{"buffer":0,"byteOffset":5328,"byteLength":288,"target":34962,"byteStride":12},{"buffer":0,"byteOffset":5616,"byteLength":192,"target":34962,"byteStride":8},{"buffer":0,"byteOffset":5808,"byteLength":24,"target":34963},{"buffer":0,"byteOffset":5832,"byteLength":12,"target":34963},{"buffer":0,"byteOffset":5844,"byteLength":12,"target":34963},{"buffer":0,"byteOffset":5856,"byteLength":12,"target":34963},{"buffer":0,"byteOffset":5868,"byteLength":12,"target":34963},{"buffer":0,"byteOffset":5880,"byteLength":288,"target":34962,"byteStride":12},{"buffer":0,"byteOffset":6168,"byteLength":288,"target":34962,"byteStride":12},{"buffer":0,"byteOffset":6456,"byteLength":192,"target":34962,"byteStride":8},{"buffer":0,"byteOffset":6648,"byteLength":72,"target":34963},{"buffer":0,"byteOffset":6720,"byteLength":288,"target":34962,"byteStride":12},{"buffer":0,"byteOffset":7008,"byteLength":288,"target":34962,"byteStride":12},{"buffer":0,"byteOffset":7296,"byteLength":192,"target":34962,"byteStride":8},{"buffer":0,"byteOffset":7488,"byteLength":72,"target":34963},{"buffer":0,"byteOffset":7560,"byteLength":288,"target":34962,"byteStride":12},{"buffer":0,"byteOffset":7848,"byteLength":288,"target":34962,"byteStride":12},{"buffer":0,"byteOffset":8136,"byteLength":192,"target":34962,"byteStride":8},{"buffer":0,"byteOffset":8328,"byteLength":72,"target":34963},{"buffer":0,"byteOffset":8400,"byteLength":288,"target":34962,"byteStride":12},{"buffer":0,"byteOffset":8688,"byteLength":288,"target":34962,"byteStride":12},{"buffer":0,"byteOffset":8976,"byteLength":192,"target":34962,"byteStride":8},{"buffer":0,"byteOffset":9168,"byteLength":72,"target":34963},{"buffer":0,"byteOffset":9240,"byteLength":288,"target":34962,"byteStride":12},{"buffer":0,"byteOffset":9528,"byteLength":288,"target":34962,"byteStride":12},{"buffer":0,"byteOffset":9816,"byteLength":192,"target":34962,"byteStride":8},{"buffer":0,"byteOffset":10008,"byteLength":48,"target":34963},{"buffer":0,"byteOffset":10056,"byteLength":12,"target":34963},{"buffer":0,"byteOffset":10068,"byteLength":12,"target":34963},{"buffer":0,"byteOffset":10080,"byteLength":20},{"buffer":0,"byteOffset":10100,"byteLength":80},{"buffer":0,"byteOffset":10180,"byteLength":20},{"buffer":0,"byteOffset":10200,"byteLength":80},{"buffer":0,"byteOffset":10280,"byteLength":12},{"buffer":0,"byteOffset":10292,"byteLength":48},{"buffer":0,"byteOffset":10340,"byteLength":12},{"buffer":0,"byteOffset":10352,"byteLength":48},{"buffer":0,"byteOffset":10400,"byteLength":12},{"buffer":0,"byteOffset":10412,"byteLength":48}],"buffers":[{"byteLength":10460,"uri":"data:application/octet-stream;base64,"}],"accessors":[{"bufferView":0,"componentType":5126,"count":24,"max":[0.0625,0.125,0.1875],"min":[-0.0625,0,-0.0625],"type":"VEC3"},{"bufferView":1,"componentType":5126,"count":24,"max":[1,1,1],"min":[-1,-1,-1],"type":"VEC3"},{"bufferView":2,"componentType":5126,"count":24,"max":[0.2109375,0.65625],"min":[0.015625,0.5546875],"type":"VEC2"},{"bufferView":3,"componentType":5123,"count":36,"max":[23],"min":[0],"type":"SCALAR"},{"bufferView":4,"componentType":5126,"count":24,"max":[0.1875,0.25,0.1875],"min":[-0.0625,0,-0.0625],"type":"VEC3"},{"bufferView":5,"componentType":5126,"count":24,"max":[1,1,1],"min":[-1,-1,-1],"type":"VEC3"},{"bufferView":6,"componentType":5126,"count":24,"max":[0.796875,0.7421875],"min":[0.515625,0.625],"type":"VEC2"},{"bufferView":7,"componentType":5123,"count":36,"max":[23],"min":[0],"type":"SCALAR"},{"bufferView":8,"componentType":5126,"count":24,"max":[0.4375,0.5,0.4375],"min":[-0.0625,0,-0.0625],"type":"VEC3"},{"bufferView":9,"componentType":5126,"count":24,"max":[1,1,1],"min":[-1,-1,-1],"type":"VEC3"},{"bufferView":10,"componentType":5126,"count":24,"max":[0.75,0.609375],"min":[0.328125,0.390625],"type":"VEC2"},{"bufferView":11,"componentType":5123,"count":36,"max":[23],"min":[0],"type":"SCALAR"},{"bufferView":12,"componentType":5126,"count":24,"max":[-0.062437500804662704,0.703125,0.5],"min":[-0.0625,0.015625,-0.0625],"type":"VEC3"},{"bufferView":13,"componentType":5126,"count":24,"max":[1,1,1],"min":[-1,-1,-1],"type":"VEC3"},{"bufferView":14,"componentType":5126,"count":24,"max":[0.421875,0.984375],"min":[0,0],"type":"VEC2"},{"bufferView":15,"componentType":5123,"count":12,"max":[7],"min":[0],"type":"SCALAR"},{"bufferView":16,"componentType":5123,"count":6,"max":[11],"min":[8],"type":"SCALAR"},{"bufferView":17,"componentType":5123,"count":6,"max":[15],"min":[12],"type":"SCALAR"},{"bufferView":18,"componentType":5123,"count":6,"max":[19],"min":[16],"type":"SCALAR"},{"bufferView":19,"componentType":5123,"count":6,"max":[23],"min":[20],"type":"SCALAR"},{"bufferView":20,"componentType":5126,"count":24,"max":[0.5625,0.625,1.1875],"min":[-0.0625,0,-0.0625],"type":"VEC3"},{"bufferView":21,"componentType":5126,"count":24,"max":[1,1,1],"min":[-1,-1,-1],"type":"VEC3"},{"bufferView":22,"componentType":5126,"count":24,"max":[0.7578125,0.390625],"min":[0,0],"type":"VEC2"},{"bufferView":23,"componentType":5123,"count":36,"max":[23],"min":[0],"type":"SCALAR"},{"bufferView":24,"componentType":5126,"count":24,"max":[-0.062437500804662704,0.6875,0.5],"min":[-0.0625,0,-0.0625],"type":"VEC3"},{"bufferView":25,"componentType":5126,"count":24,"max":[1,1,1],"min":[-1,-1,-1],"type":"VEC3"},{"bufferView":26,"componentType":5126,"count":24,"max":[0.265625,0.6875],"min":[0,0],"type":"VEC2"},{"bufferView":27,"componentType":5123,"count":12,"max":[7],"min":[0],"type":"SCALAR"},{"bufferView":28,"componentType":5123,"count":6,"max":[11],"min":[8],"type":"SCALAR"},{"bufferView":29,"componentType":5123,"count":6,"max":[15],"min":[12],"type":"SCALAR"},{"bufferView":30,"componentType":5123,"count":6,"max":[19],"min":[16],"type":"SCALAR"},{"bufferView":31,"componentType":5123,"count":6,"max":[23],"min":[20],"type":"SCALAR"},{"bufferView":32,"componentType":5126,"count":24,"max":[-0.062437500804662704,0.375,0.25],"min":[-0.0625,0,-0.125],"type":"VEC3"},{"bufferView":33,"componentType":5126,"count":24,"max":[1,1,1],"min":[-1,-1,-1],"type":"VEC3"},{"bufferView":34,"componentType":5126,"count":24,"max":[0.8125,0.4765625],"min":[0,0],"type":"VEC2"},{"bufferView":35,"componentType":5123,"count":12,"max":[7],"min":[0],"type":"SCALAR"},{"bufferView":36,"componentType":5123,"count":6,"max":[11],"min":[8],"type":"SCALAR"},{"bufferView":37,"componentType":5123,"count":6,"max":[15],"min":[12],"type":"SCALAR"},{"bufferView":38,"componentType":5123,"count":6,"max":[19],"min":[16],"type":"SCALAR"},{"bufferView":39,"componentType":5123,"count":6,"max":[23],"min":[20],"type":"SCALAR"},{"bufferView":40,"componentType":5126,"count":24,"max":[0,0.1875,0.25],"min":[-0.0625,0,-0.0625],"type":"VEC3"},{"bufferView":41,"componentType":5126,"count":24,"max":[1,1,1],"min":[-1,-1,-1],"type":"VEC3"},{"bufferView":42,"componentType":5126,"count":24,"max":[0.1328125,0.1484375],"min":[0.09375,0.109375],"type":"VEC2"},{"bufferView":43,"componentType":5123,"count":36,"max":[23],"min":[0],"type":"SCALAR"},{"bufferView":44,"componentType":5126,"count":24,"max":[-0.03125,0.1875,0.25],"min":[-0.0625,0,-0.0625],"type":"VEC3"},{"bufferView":45,"componentType":5126,"count":24,"max":[1,1,1],"min":[-1,-1,-1],"type":"VEC3"},{"bufferView":46,"componentType":5126,"count":24,"max":[0.1171875,0.2421875],"min":[0.078125,0.2109375],"type":"VEC2"},{"bufferView":47,"componentType":5123,"count":36,"max":[23],"min":[0],"type":"SCALAR"},{"bufferView":48,"componentType":5126,"count":24,"max":[-0.03125,0.0625,0.9375],"min":[-0.09375,0,-0.0625],"type":"VEC3"},{"bufferView":49,"componentType":5126,"count":24,"max":[1,1,1],"min":[-1,-1,-1],"type":"VEC3"},{"bufferView":50,"componentType":5126,"count":24,"max":[0.546875,0.6875],"min":[0.265625,0.515625],"type":"VEC2"},{"bufferView":51,"componentType":5123,"count":36,"max":[23],"min":[0],"type":"SCALAR"},{"bufferView":52,"componentType":5126,"count":24,"max":[0.1875,0.25,0.1875],"min":[-0.0625,0,-0.0625],"type":"VEC3"},{"bufferView":53,"componentType":5126,"count":24,"max":[1,1,1],"min":[-1,-1,-1],"type":"VEC3"},{"bufferView":54,"componentType":5126,"count":24,"max":[0.234375,0.1015625],"min":[0.0234375,0.0078125],"type":"VEC2"},{"bufferView":55,"componentType":5123,"count":36,"max":[23],"min":[0],"type":"SCALAR"},{"bufferView":56,"componentType":5126,"count":24,"max":[0.4375,0.5,0.4375],"min":[-0.0625,0,-0.0625],"type":"VEC3"},{"bufferView":57,"componentType":5126,"count":24,"max":[1,1,1],"min":[-1,-1,-1],"type":"VEC3"},{"bufferView":58,"componentType":5126,"count":24,"max":[0.765625,0.5],"min":[0,0],"type":"VEC2"},{"bufferView":59,"componentType":5123,"count":24,"max":[15],"min":[0],"type":"SCALAR"},{"bufferView":60,"componentType":5123,"count":6,"max":[19],"min":[16],"type":"SCALAR"},{"bufferView":61,"componentType":5123,"count":6,"max":[23],"min":[20],"type":"SCALAR"},{"bufferView":62,"componentType":5126,"count":5,"max":[1],"min":[0],"type":"SCALAR"},{"bufferView":63,"componentType":5126,"count":5,"max":[0,0.08715574443340302,0,1],"min":[0,-0.08715574443340302,0,0.9961947202682495],"type":"VEC4"},{"bufferView":64,"componentType":5126,"count":5,"max":[1],"min":[0],"type":"SCALAR"},{"bufferView":65,"componentType":5126,"count":5,"max":[0,0.02181488461792469,0,1],"min":[0,-0.02181488461792469,0,0.9997619986534119],"type":"VEC4"},{"bufferView":66,"componentType":5126,"count":3,"max":[1],"min":[0],"type":"SCALAR"},{"bufferView":67,"componentType":5126,"count":3,"max":[0,0.06540312618017197,0,1],"min":[0,0,0,0.9978589415550232],"type":"VEC4"},{"bufferView":68,"componentType":5126,"count":3,"max":[1],"min":[0],"type":"SCALAR"},{"bufferView":69,"componentType":5126,"count":3,"max":[0,0,0,1],"min":[0,-0.10886687785387039,0,0.9940563440322876],"type":"VEC4"},{"bufferView":70,"componentType":5126,"count":3,"max":[1],"min":[0],"type":"SCALAR"},{"bufferView":71,"componentType":5126,"count":3,"max":[0.008726535364985466,0,0,1],"min":[0,0,0,0.9999619126319885],"type":"VEC4"}],"materials":[{"pbrMetallicRoughness":{"metallicFactor":0,"roughnessFactor":1,"baseColorTexture":{"index":0}},"alphaMode":"MASK","alphaCutoff":0.05,"doubleSided":true},{"pbrMetallicRoughness":{"metallicFactor":0,"roughnessFactor":1},"alphaMode":"MASK","alphaCutoff":0.05,"doubleSided":true},{"pbrMetallicRoughness":{"metallicFactor":0,"roughnessFactor":1},"alphaMode":"MASK","alphaCutoff":0.05,"doubleSided":true}],"textures":[{"sampler":0,"source":0}],"samplers":[{"magFilter":9728,"minFilter":9728,"wrapS":33071,"wrapT":33071}],"images":[{"mimeType":"image/png","uri":"data:image/png;base64,"}],"meshes":[{"primitives":[{"mode":4,"attributes":{"POSITION":0,"NORMAL":1,"TEXCOORD_0":2},"indices":3,"material":0}]},{"primitives":[{"mode":4,"attributes":{"POSITION":4,"NORMAL":5,"TEXCOORD_0":6},"indices":7,"material":0}]},{"primitives":[{"mode":4,"attributes":{"POSITION":8,"NORMAL":9,"TEXCOORD_0":10},"indices":11,"material":0}]},{"primitives":[{"mode":4,"attributes":{"POSITION":12,"NORMAL":13,"TEXCOORD_0":14},"indices":15,"material":0},{"mode":4,"attributes":{"POSITION":12,"NORMAL":13,"TEXCOORD_0":14},"indices":16,"material":1},{"mode":4,"attributes":{"POSITION":12,"NORMAL":13,"TEXCOORD_0":14},"indices":17,"material":1},{"mode":4,"attributes":{"POSITION":12,"NORMAL":13,"TEXCOORD_0":14},"indices":18,"material":1},{"mode":4,"attributes":{"POSITION":12,"NORMAL":13,"TEXCOORD_0":14},"indices":19,"material":1}]},{"primitives":[{"mode":4,"attributes":{"POSITION":20,"NORMAL":21,"TEXCOORD_0":22},"indices":23,"material":0}]},{"primitives":[{"mode":4,"attributes":{"POSITION":24,"NORMAL":25,"TEXCOORD_0":26},"indices":27,"material":0},{"mode":4,"attributes":{"POSITION":24,"NORMAL":25,"TEXCOORD_0":26},"indices":28,"material":1},{"mode":4,"attributes":{"POSITION":24,"NORMAL":25,"TEXCOORD_0":26},"indices":29,"material":1},{"mode":4,"attributes":{"POSITION":24,"NORMAL":25,"TEXCOORD_0":26},"indices":30,"material":1},{"mode":4,"attributes":{"POSITION":24,"NORMAL":25,"TEXCOORD_0":26},"indices":31,"material":1}]},{"primitives":[{"mode":4,"attributes":{"POSITION":32,"NORMAL":33,"TEXCOORD_0":34},"indices":35,"material":0},{"mode":4,"attributes":{"POSITION":32,"NORMAL":33,"TEXCOORD_0":34},"indices":36,"material":2},{"mode":4,"attributes":{"POSITION":32,"NORMAL":33,"TEXCOORD_0":34},"indices":37,"material":2},{"mode":4,"attributes":{"POSITION":32,"NORMAL":33,"TEXCOORD_0":34},"indices":38,"material":2},{"mode":4,"attributes":{"POSITION":32,"NORMAL":33,"TEXCOORD_0":34},"indices":39,"material":2}]},{"primitives":[{"mode":4,"attributes":{"POSITION":40,"NORMAL":41,"TEXCOORD_0":42},"indices":43,"material":0}]},{"primitives":[{"mode":4,"attributes":{"POSITION":44,"NORMAL":45,"TEXCOORD_0":46},"indices":47,"material":0}]},{"primitives":[{"mode":4,"attributes":{"POSITION":48,"NORMAL":49,"TEXCOORD_0":50},"indices":51,"material":0}]},{"primitives":[{"mode":4,"attributes":{"POSITION":52,"NORMAL":53,"TEXCOORD_0":54},"indices":55,"material":0}]},{"primitives":[{"mode":4,"attributes":{"POSITION":56,"NORMAL":57,"TEXCOORD_0":58},"indices":59,"material":0},{"mode":4,"attributes":{"POSITION":56,"NORMAL":57,"TEXCOORD_0":58},"indices":60,"material":2},{"mode":4,"attributes":{"POSITION":56,"NORMAL":57,"TEXCOORD_0":58},"indices":61,"material":0}]}],"animations":[{"name":"swim","samplers":[{"input":62,"output":63,"interpolation":"LINEAR"},{"input":64,"output":65,"interpolation":"LINEAR"},{"input":66,"output":67,"interpolation":"LINEAR"},{"input":68,"output":69,"interpolation":"LINEAR"},{"input":70,"output":71,"interpolation":"LINEAR"}],"channels":[{"sampler":0,"target":{"node":4,"path":"rotation"}},{"sampler":1,"target":{"node":8,"path":"rotation"}},{"sampler":2,"target":{"node":10,"path":"rotation"}},{"sampler":3,"target":{"node":12,"path":"rotation"}},{"sampler":4,"target":{"node":16,"path":"rotation"}}]}]}